<svg width="271" height="246" viewBox="0 0 271 246" fill="none" xmlns="http://www.w3.org/2000/svg">
<rect width="68" height="246" rx="5" fill="#2B885C"/>
<rect x="68" y="12" width="13" height="16" fill="#283F73"/>
<rect x="81" width="147" height="38" rx="5" fill="#283F73"/>
<path d="M88 134H189V211H93C90.2386 211 88 208.761 88 206V134Z" fill="#EB679D"/>
<rect x="83" y="123" width="150" height="11" rx="2" fill="#283F73"/>
<path d="M179 166H254V206C254 208.761 251.761 211 249 211H179V166Z" fill="#EB679D"/>
<path d="M229.051 134L254 166H189V134H229.051Z" fill="#EB679D"/>
<path d="M221.333 137C221.928 137 222.493 137.265 222.873 137.723L240.283 158.723C241.364 160.027 240.437 162 238.744 162H191C189.895 162 189 161.105 189 160V139C189 137.895 189.895 137 191 137H221.333Z" fill="#A2BDF4"/>
<circle cx="126" cy="212" r="19" fill="#283F73"/>
<ellipse cx="220.5" cy="212" rx="19.5" ry="19" fill="#283F73"/>
<circle cx="126" cy="212" r="9" fill="#A2BDF4"/>
<ellipse cx="220.5" cy="212" rx="9.5" ry="9" fill="#A2BDF4"/>
<rect x="68" y="231" width="203" height="15" rx="5" fill="#925948"/>
<rect x="143" y="85" width="35" height="26" fill="#F5A1C3"/>
<path d="M143 111H178V116C178 117.105 177.105 118 176 118H145C143.895 118 143 117.105 143 116V111Z" fill="#283F73"/>
<path d="M143 76C143 74.8954 143.895 74 145 74H176C177.105 74 178 74.8954 178 76V85H143V76Z" fill="#283F73"/>
<path d="M143 85V100H141C139.895 100 139 99.1046 139 98V87C139 85.8954 139.895 85 141 85H143Z" fill="#283F73"/>
<path d="M180 85C181.105 85 182 85.8954 182 87V98C182 99.1046 181.105 100 180 100H178V85H180Z" fill="#283F73"/>
<path d="M87 96V111H85C83.8954 111 83 110.105 83 109V98C83 96.8954 83.8954 96 85 96H87Z" fill="#283F73"/>
<path d="M124 96C125.105 96 126 96.8954 126 98V109C126 110.105 125.105 111 124 111H122V96H124Z" fill="#283F73"/>
<path d="M157 121C157 122.105 156.105 123 155 123H151C149.895 123 149 122.105 149 121V118H157V121Z" fill="#EB679D"/>
<path d="M172 121C172 122.105 171.105 123 170 123H166C164.895 123 164 122.105 164 121V118H172V121Z" fill="#EB679D"/>
<rect x="150" y="90" width="8" height="5" rx="2.5" fill="#283F73"/>
<rect x="154" y="91" width="3" height="3" rx="1.5" fill="white"/>
<rect x="164" y="90" width="8" height="5" rx="2.5" fill="#283F73"/>
<rect x="168" y="91" width="3" height="3" rx="1.5" fill="white"/>
<rect x="87" y="96" width="35" height="15" fill="#F5A1C3"/>
<path d="M87 111H122V116C122 117.105 121.105 118 120 118H89C87.8954 118 87 117.105 87 116V111Z" fill="#283F73"/>
<path d="M87 87C87 85.8954 87.8954 85 89 85H120C121.105 85 122 85.8954 122 87V96H87V87Z" fill="#283F73"/>
<path d="M101 121C101 122.105 100.105 123 99 123H95C93.8954 123 93 122.105 93 121V118H101V121Z" fill="#EB679D"/>
<path d="M116 121C116 122.105 115.105 123 114 123H110C108.895 123 108 122.105 108 121V118H116V121Z" fill="#EB679D"/>
<rect x="196" y="96" width="36" height="27" fill="#A2BDF4"/>
<rect x="195" y="89" width="38" height="7" fill="#283F73"/>
<rect x="211" y="89" width="6" height="11" fill="#EB679D"/>
<rect x="93" y="101" width="8" height="5" rx="2.5" fill="#283F73"/>
<rect x="97" y="102" width="3" height="3" rx="1.5" fill="white"/>
<rect x="107" y="101" width="8" height="5" rx="2.5" fill="#283F73"/>
<rect x="111" y="102" width="3" height="3" rx="1.5" fill="white"/>
<circle cx="246.5" cy="172.5" r="5.5" fill="#FAD062"/>
<path d="M103 142.5H131.5V183.5H103C100.515 183.5 98.5 181.485 98.5 179V147C98.5 144.515 100.515 142.5 103 142.5Z" fill="#FAD062" stroke="#F5A1C3"/>
<path d="M161 142.5C163.485 142.5 165.5 144.515 165.5 147V179C165.5 181.485 163.485 183.5 161 183.5H132.5V142.5H161Z" fill="#FAD062" stroke="#F5A1C3"/>
<rect x="136" y="157" width="4" height="11" rx="2" fill="#F5A1C3"/>
<rect x="203" y="170" width="5" height="13" rx="2" transform="rotate(90 203 170)" fill="#FAD062"/>
<rect x="124" y="157" width="4" height="11" rx="2" fill="#F5A1C3"/>
<rect x="8" y="118" width="53" height="116" rx="5" fill="#A2BDF4"/>
<path d="M92.543 21.3086H89.3555V26.1719C89.3555 26.8672 89.1914 27.3945 88.8633 27.7539C88.5352 28.1133 88.1211 28.293 87.6211 28.293C87.0977 28.293 86.6758 28.1172 86.3555 27.7656C86.0352 27.4062 85.875 26.8828 85.875 26.1953V12.9531C85.875 12.1875 86.0508 11.6406 86.4023 11.3125C86.7539 10.9844 87.3125 10.8203 88.0781 10.8203H92.543C93.8633 10.8203 94.8789 10.9219 95.5898 11.125C96.293 11.3203 96.8984 11.6445 97.4062 12.0977C97.9219 12.5508 98.3125 13.1055 98.5781 13.7617C98.8438 14.418 98.9766 15.1562 98.9766 15.9766C98.9766 17.7266 98.4375 19.0547 97.3594 19.9609C96.2812 20.8594 94.6758 21.3086 92.543 21.3086ZM91.6992 13.4336H89.3555V18.6836H91.6992C92.5195 18.6836 93.2031 18.5977 93.75 18.4258C94.3047 18.2539 94.7266 17.9727 95.0156 17.582C95.3047 17.1914 95.4492 16.6797 95.4492 16.0469C95.4492 15.2891 95.2266 14.6719 94.7812 14.1953C94.2812 13.6875 93.2539 13.4336 91.6992 13.4336ZM110.766 26.0547L109.945 23.8984H102.961L102.141 26.1016C101.82 26.9609 101.547 27.543 101.32 27.8477C101.094 28.1445 100.723 28.293 100.207 28.293C99.7695 28.293 99.3828 28.1328 99.0469 27.8125C98.7109 27.4922 98.543 27.1289 98.543 26.7227C98.543 26.4883 98.582 26.2461 98.6602 25.9961C98.7383 25.7461 98.8672 25.3984 99.0469 24.9531L103.441 13.7969C103.566 13.4766 103.715 13.0938 103.887 12.6484C104.066 12.1953 104.254 11.8203 104.449 11.5234C104.652 11.2266 104.914 10.9883 105.234 10.8086C105.562 10.6211 105.965 10.5273 106.441 10.5273C106.926 10.5273 107.328 10.6211 107.648 10.8086C107.977 10.9883 108.238 11.2227 108.434 11.5117C108.637 11.8008 108.805 12.1133 108.938 12.4492C109.078 12.7773 109.254 13.2188 109.465 13.7734L113.953 24.8594C114.305 25.7031 114.48 26.3164 114.48 26.6992C114.48 27.0977 114.312 27.4648 113.977 27.8008C113.648 28.1289 113.25 28.293 112.781 28.293C112.508 28.293 112.273 28.2422 112.078 28.1406C111.883 28.0469 111.719 27.918 111.586 27.7539C111.453 27.582 111.309 27.3242 111.152 26.9805C111.004 26.6289 110.875 26.3203 110.766 26.0547ZM103.875 21.2852H109.008L106.418 14.1953L103.875 21.2852ZM117.188 26.1719V12.6367C117.188 11.9336 117.348 11.4062 117.668 11.0547C117.988 10.7031 118.402 10.5273 118.91 10.5273C119.434 10.5273 119.855 10.7031 120.176 11.0547C120.504 11.3984 120.668 11.9258 120.668 12.6367V26.1719C120.668 26.8828 120.504 27.4141 120.176 27.7656C119.855 28.1172 119.434 28.293 118.91 28.293C118.41 28.293 117.996 28.1172 117.668 27.7656C117.348 27.4062 117.188 26.875 117.188 26.1719ZM129.105 12.6133L135.797 22.7383V12.5195C135.797 11.8555 135.938 11.3594 136.219 11.0312C136.508 10.6953 136.895 10.5273 137.379 10.5273C137.879 10.5273 138.273 10.6953 138.562 11.0312C138.852 11.3594 138.996 11.8555 138.996 12.5195V26.0312C138.996 27.5391 138.371 28.293 137.121 28.293C136.809 28.293 136.527 28.2461 136.277 28.1523C136.027 28.0664 135.793 27.9258 135.574 27.7305C135.355 27.5352 135.152 27.3086 134.965 27.0508C134.777 26.7852 134.59 26.5156 134.402 26.2422L127.875 16.2344V26.3008C127.875 26.957 127.723 27.4531 127.418 27.7891C127.113 28.125 126.723 28.293 126.246 28.293C125.754 28.293 125.359 28.125 125.062 27.7891C124.766 27.4453 124.617 26.9492 124.617 26.3008V13.0469C124.617 12.4844 124.68 12.043 124.805 11.7227C124.953 11.3711 125.199 11.0859 125.543 10.8672C125.887 10.6406 126.258 10.5273 126.656 10.5273C126.969 10.5273 127.234 10.5781 127.453 10.6797C127.68 10.7812 127.875 10.918 128.039 11.0898C128.211 11.2617 128.383 11.4844 128.555 11.7578C128.734 12.0312 128.918 12.3164 129.105 12.6133ZM153.961 13.6914H150.164V26.1719C150.164 26.8906 150.004 27.4258 149.684 27.7773C149.363 28.1211 148.949 28.293 148.441 28.293C147.926 28.293 147.504 28.1172 147.176 27.7656C146.855 27.4141 146.695 26.8828 146.695 26.1719V13.6914H142.898C142.305 13.6914 141.863 13.5625 141.574 13.3047C141.285 13.0391 141.141 12.6914 141.141 12.2617C141.141 11.8164 141.289 11.4648 141.586 11.207C141.891 10.9492 142.328 10.8203 142.898 10.8203H153.961C154.562 10.8203 155.008 10.9531 155.297 11.2188C155.594 11.4844 155.742 11.832 155.742 12.2617C155.742 12.6914 155.594 13.0391 155.297 13.3047C155 13.5625 154.555 13.6914 153.961 13.6914ZM163.945 26.1719V12.6367C163.945 11.9336 164.105 11.4062 164.426 11.0547C164.746 10.7031 165.16 10.5273 165.668 10.5273C166.191 10.5273 166.613 10.7031 166.934 11.0547C167.262 11.3984 167.426 11.9258 167.426 12.6367V26.1719C167.426 26.8828 167.262 27.4141 166.934 27.7656C166.613 28.1172 166.191 28.293 165.668 28.293C165.168 28.293 164.754 28.1172 164.426 27.7656C164.105 27.4062 163.945 26.875 163.945 26.1719ZM182.484 13.6914H178.688V26.1719C178.688 26.8906 178.527 27.4258 178.207 27.7773C177.887 28.1211 177.473 28.293 176.965 28.293C176.449 28.293 176.027 28.1172 175.699 27.7656C175.379 27.4141 175.219 26.8828 175.219 26.1719V13.6914H171.422C170.828 13.6914 170.387 13.5625 170.098 13.3047C169.809 13.0391 169.664 12.6914 169.664 12.2617C169.664 11.8164 169.812 11.4648 170.109 11.207C170.414 10.9492 170.852 10.8203 171.422 10.8203H182.484C183.086 10.8203 183.531 10.9531 183.82 11.2188C184.117 11.4844 184.266 11.832 184.266 12.2617C184.266 12.6914 184.117 13.0391 183.82 13.3047C183.523 13.5625 183.078 13.6914 182.484 13.6914ZM192.352 20.8984V12.6367C192.352 11.9336 192.508 11.4062 192.82 11.0547C193.141 10.7031 193.559 10.5273 194.074 10.5273C194.613 10.5273 195.039 10.7031 195.352 11.0547C195.672 11.4062 195.832 11.9336 195.832 12.6367V21.0859C195.832 22.0469 195.938 22.8516 196.148 23.5C196.367 24.1406 196.75 24.6406 197.297 25C197.844 25.3516 198.609 25.5273 199.594 25.5273C200.953 25.5273 201.914 25.168 202.477 24.4492C203.039 23.7227 203.32 22.625 203.32 21.1562V12.6367C203.32 11.9258 203.477 11.3984 203.789 11.0547C204.102 10.7031 204.52 10.5273 205.043 10.5273C205.566 10.5273 205.988 10.7031 206.309 11.0547C206.637 11.3984 206.801 11.9258 206.801 12.6367V20.8984C206.801 22.2422 206.668 23.3633 206.402 24.2617C206.145 25.1602 205.652 25.9492 204.926 26.6289C204.301 27.207 203.574 27.6289 202.746 27.8945C201.918 28.1602 200.949 28.293 199.84 28.293C198.52 28.293 197.383 28.1523 196.43 27.8711C195.477 27.582 194.699 27.1406 194.098 26.5469C193.496 25.9453 193.055 25.1797 192.773 24.25C192.492 23.3125 192.352 22.1953 192.352 20.8984ZM217.23 21.3086H214.043V26.1719C214.043 26.8672 213.879 27.3945 213.551 27.7539C213.223 28.1133 212.809 28.293 212.309 28.293C211.785 28.293 211.363 28.1172 211.043 27.7656C210.723 27.4062 210.562 26.8828 210.562 26.1953V12.9531C210.562 12.1875 210.738 11.6406 211.09 11.3125C211.441 10.9844 212 10.8203 212.766 10.8203H217.23C218.551 10.8203 219.566 10.9219 220.277 11.125C220.98 11.3203 221.586 11.6445 222.094 12.0977C222.609 12.5508 223 13.1055 223.266 13.7617C223.531 14.418 223.664 15.1562 223.664 15.9766C223.664 17.7266 223.125 19.0547 222.047 19.9609C220.969 20.8594 219.363 21.3086 217.23 21.3086ZM216.387 13.4336H214.043V18.6836H216.387C217.207 18.6836 217.891 18.5977 218.438 18.4258C218.992 18.2539 219.414 17.9727 219.703 17.582C219.992 17.1914 220.137 16.6797 220.137 16.0469C220.137 15.2891 219.914 14.6719 219.469 14.1953C218.969 13.6875 217.941 13.4336 216.387 13.4336Z" fill="#F5A1C3"/>
</svg>
