<svg width="159" height="263" viewBox="0 0 159 263" fill="none" xmlns="http://www.w3.org/2000/svg">
<rect x="4" width="139" height="44" rx="5" fill="#283F73"/>
<path d="M32.8877 26.1221C32.8877 26.7145 32.7396 27.3577 32.4434 28.0518C32.1556 28.7373 31.6986 29.4144 31.0723 30.083C30.446 30.7432 29.6462 31.2806 28.6729 31.6953C27.6995 32.11 26.5654 32.3174 25.2705 32.3174C24.2887 32.3174 23.3958 32.2243 22.5918 32.0381C21.7878 31.8519 21.0557 31.5641 20.3955 31.1748C19.7438 30.777 19.1429 30.2565 18.5928 29.6133C18.1019 29.0293 17.6829 28.3776 17.3359 27.6582C16.9889 26.9303 16.7266 26.1559 16.5488 25.335C16.3796 24.514 16.2949 23.6423 16.2949 22.7197C16.2949 21.2217 16.5107 19.8802 16.9424 18.6953C17.3825 17.5104 18.0088 16.499 18.8213 15.6611C19.6338 14.8148 20.5859 14.1715 21.6777 13.7314C22.7695 13.2913 23.9333 13.0713 25.1689 13.0713C26.6755 13.0713 28.0169 13.3717 29.1934 13.9727C30.3698 14.5736 31.2712 15.3184 31.8975 16.207C32.5238 17.0872 32.8369 17.9209 32.8369 18.708C32.8369 19.1396 32.6846 19.5205 32.3799 19.8506C32.0752 20.1807 31.707 20.3457 31.2754 20.3457C30.793 20.3457 30.429 20.2314 30.1836 20.0029C29.9466 19.7744 29.68 19.3809 29.3838 18.8223C28.8929 17.8997 28.3132 17.21 27.6445 16.7529C26.9844 16.2959 26.1676 16.0674 25.1943 16.0674C23.6455 16.0674 22.4098 16.6556 21.4873 17.832C20.5732 19.0085 20.1162 20.68 20.1162 22.8467C20.1162 24.2939 20.3193 25.5 20.7256 26.4648C21.1318 27.4212 21.7074 28.1364 22.4521 28.6104C23.1969 29.0843 24.0687 29.3213 25.0674 29.3213C26.1507 29.3213 27.0648 29.0547 27.8096 28.5215C28.5628 27.9798 29.1299 27.1885 29.5107 26.1475C29.6715 25.6566 29.8704 25.2588 30.1074 24.9541C30.3444 24.641 30.7253 24.4844 31.25 24.4844C31.6986 24.4844 32.0837 24.641 32.4053 24.9541C32.7269 25.2673 32.8877 25.6566 32.8877 26.1221ZM40.0732 15.3564V20.6885H48.2109V15.3564C48.2109 14.5947 48.3802 14.0234 48.7188 13.6426C49.0658 13.2617 49.5186 13.0713 50.0771 13.0713C50.6442 13.0713 51.1012 13.2617 51.4482 13.6426C51.8037 14.015 51.9814 14.5863 51.9814 15.3564V30.0195C51.9814 30.7897 51.8037 31.3652 51.4482 31.7461C51.0928 32.127 50.6357 32.3174 50.0771 32.3174C49.5101 32.3174 49.0573 32.127 48.7188 31.7461C48.3802 31.3568 48.2109 30.7812 48.2109 30.0195V23.7607H40.0732V30.0195C40.0732 30.7897 39.8955 31.3652 39.54 31.7461C39.1846 32.127 38.7275 32.3174 38.1689 32.3174C37.6019 32.3174 37.1491 32.127 36.8105 31.7461C36.472 31.3568 36.3027 30.7812 36.3027 30.0195V15.3564C36.3027 14.5947 36.4678 14.0234 36.7979 13.6426C37.1364 13.2617 37.5934 13.0713 38.1689 13.0713C38.736 13.0713 39.193 13.2617 39.54 13.6426C39.8955 14.015 40.0732 14.5863 40.0732 15.3564ZM64.2197 13.0713C66.1494 13.0713 67.804 13.4648 69.1836 14.252C70.5716 15.0306 71.6211 16.1436 72.332 17.5908C73.043 19.0296 73.3984 20.7223 73.3984 22.6689C73.3984 24.1077 73.2038 25.4154 72.8145 26.5918C72.4251 27.7682 71.8411 28.7881 71.0625 29.6514C70.2839 30.5146 69.3275 31.1748 68.1934 31.6318C67.0592 32.0889 65.7601 32.3174 64.2959 32.3174C62.8402 32.3174 61.5368 32.0846 60.3857 31.6191C59.2347 31.1452 58.2741 30.4808 57.5039 29.626C56.7337 28.7712 56.1497 27.7428 55.752 26.541C55.3626 25.3392 55.168 24.04 55.168 22.6436C55.168 21.2132 55.3711 19.9014 55.7773 18.708C56.1921 17.5146 56.7887 16.499 57.5674 15.6611C58.346 14.8232 59.2939 14.1842 60.4111 13.7441C61.5283 13.2956 62.7979 13.0713 64.2197 13.0713ZM69.5771 22.6436C69.5771 21.2809 69.3571 20.1003 68.917 19.1016C68.4769 18.1029 67.8464 17.3496 67.0254 16.8418C66.2129 16.3255 65.2777 16.0674 64.2197 16.0674C63.4665 16.0674 62.7682 16.2113 62.125 16.499C61.4902 16.7783 60.9401 17.1888 60.4746 17.7305C60.0176 18.2721 59.6536 18.9661 59.3828 19.8125C59.1204 20.6504 58.9893 21.5941 58.9893 22.6436C58.9893 23.7015 59.1204 24.6579 59.3828 25.5127C59.6536 26.3675 60.0303 27.0785 60.5127 27.6455C61.0036 28.2041 61.5622 28.623 62.1885 28.9023C62.8232 29.1816 63.5173 29.3213 64.2705 29.3213C65.2354 29.3213 66.1198 29.0801 66.9238 28.5977C67.7363 28.1152 68.3796 27.3704 68.8535 26.3633C69.3359 25.3561 69.5771 24.1162 69.5771 22.6436ZM84.8115 13.0713C86.7412 13.0713 88.3958 13.4648 89.7754 14.252C91.1634 15.0306 92.2129 16.1436 92.9238 17.5908C93.6348 19.0296 93.9902 20.7223 93.9902 22.6689C93.9902 24.1077 93.7956 25.4154 93.4062 26.5918C93.0169 27.7682 92.4329 28.7881 91.6543 29.6514C90.8757 30.5146 89.9193 31.1748 88.7852 31.6318C87.651 32.0889 86.3519 32.3174 84.8877 32.3174C83.432 32.3174 82.1286 32.0846 80.9775 31.6191C79.8265 31.1452 78.8659 30.4808 78.0957 29.626C77.3255 28.7712 76.7415 27.7428 76.3438 26.541C75.9544 25.3392 75.7598 24.04 75.7598 22.6436C75.7598 21.2132 75.9629 19.9014 76.3691 18.708C76.7839 17.5146 77.3805 16.499 78.1592 15.6611C78.9378 14.8232 79.8857 14.1842 81.0029 13.7441C82.1201 13.2956 83.3896 13.0713 84.8115 13.0713ZM90.1689 22.6436C90.1689 21.2809 89.9489 20.1003 89.5088 19.1016C89.0687 18.1029 88.4382 17.3496 87.6172 16.8418C86.8047 16.3255 85.8695 16.0674 84.8115 16.0674C84.0583 16.0674 83.36 16.2113 82.7168 16.499C82.082 16.7783 81.5319 17.1888 81.0664 17.7305C80.6094 18.2721 80.2454 18.9661 79.9746 19.8125C79.7122 20.6504 79.5811 21.5941 79.5811 22.6436C79.5811 23.7015 79.7122 24.6579 79.9746 25.5127C80.2454 26.3675 80.6221 27.0785 81.1045 27.6455C81.5954 28.2041 82.154 28.623 82.7803 28.9023C83.415 29.1816 84.109 29.3213 84.8623 29.3213C85.8271 29.3213 86.7116 29.0801 87.5156 28.5977C88.3281 28.1152 88.9714 27.3704 89.4453 26.3633C89.9277 25.3561 90.1689 24.1162 90.1689 22.6436ZM111.357 26.4141C111.357 27.5397 111.065 28.5511 110.481 29.4482C109.906 30.3454 109.06 31.0479 107.942 31.5557C106.825 32.0635 105.501 32.3174 103.969 32.3174C102.132 32.3174 100.617 31.9704 99.4238 31.2764C98.5775 30.777 97.8877 30.1126 97.3545 29.2832C96.8298 28.4453 96.5674 27.6328 96.5674 26.8457C96.5674 26.3887 96.724 25.9993 97.0371 25.6777C97.3587 25.3477 97.765 25.1826 98.2559 25.1826C98.6536 25.1826 98.988 25.3096 99.2588 25.5635C99.5381 25.8174 99.7751 26.194 99.9697 26.6934C100.207 27.2858 100.461 27.7809 100.731 28.1787C101.011 28.5765 101.4 28.9066 101.899 29.1689C102.399 29.4229 103.055 29.5498 103.867 29.5498C104.984 29.5498 105.89 29.2917 106.584 28.7754C107.286 28.2507 107.638 27.599 107.638 26.8203C107.638 26.2025 107.447 25.7031 107.066 25.3223C106.694 24.9329 106.207 24.6367 105.606 24.4336C105.014 24.2305 104.218 24.0146 103.22 23.7861C101.882 23.473 100.761 23.109 99.8555 22.6943C98.9583 22.2712 98.2432 21.6999 97.71 20.9805C97.1852 20.2526 96.9229 19.3512 96.9229 18.2764C96.9229 17.2523 97.2021 16.3424 97.7607 15.5469C98.3193 14.7513 99.1276 14.1419 100.186 13.7188C101.243 13.2871 102.488 13.0713 103.918 13.0713C105.061 13.0713 106.047 13.2152 106.876 13.5029C107.714 13.7822 108.408 14.1589 108.958 14.6328C109.508 15.0983 109.91 15.5892 110.164 16.1055C110.418 16.6217 110.545 17.1253 110.545 17.6162C110.545 18.0648 110.384 18.471 110.062 18.835C109.749 19.1904 109.356 19.3682 108.882 19.3682C108.45 19.3682 108.12 19.2624 107.892 19.0508C107.672 18.8307 107.43 18.4753 107.168 17.9844C106.829 17.2819 106.423 16.736 105.949 16.3467C105.475 15.9489 104.714 15.75 103.664 15.75C102.691 15.75 101.904 15.9658 101.303 16.3975C100.71 16.8206 100.414 17.3327 100.414 17.9336C100.414 18.306 100.516 18.6276 100.719 18.8984C100.922 19.1693 101.201 19.402 101.557 19.5967C101.912 19.7913 102.272 19.9437 102.636 20.0537C103 20.1637 103.601 20.3245 104.438 20.5361C105.488 20.7816 106.436 21.0524 107.282 21.3486C108.137 21.6449 108.861 22.0046 109.453 22.4277C110.054 22.8509 110.52 23.3883 110.85 24.04C111.188 24.6833 111.357 25.4746 111.357 26.4141ZM126.82 16.2959H118.327V20.8662H126.147C126.723 20.8662 127.15 20.9974 127.43 21.2598C127.717 21.5137 127.861 21.8522 127.861 22.2754C127.861 22.6986 127.722 23.0456 127.442 23.3164C127.163 23.5788 126.731 23.71 126.147 23.71H118.327V29.0039H127.112C127.705 29.0039 128.149 29.1436 128.445 29.4229C128.75 29.6937 128.902 30.0576 128.902 30.5146C128.902 30.9548 128.75 31.3145 128.445 31.5938C128.149 31.8646 127.705 32 127.112 32H116.867C116.046 32 115.454 31.818 115.09 31.4541C114.734 31.0902 114.557 30.502 114.557 29.6895V15.6992C114.557 15.1576 114.637 14.7174 114.798 14.3789C114.959 14.0319 115.208 13.7822 115.547 13.6299C115.894 13.4691 116.334 13.3887 116.867 13.3887H126.82C127.421 13.3887 127.866 13.5241 128.153 13.7949C128.45 14.0573 128.598 14.4043 128.598 14.8359C128.598 15.276 128.45 15.6315 128.153 15.9023C127.866 16.1647 127.421 16.2959 126.82 16.2959Z" fill="#A2BDF4"/>
<rect x="16" y="44" width="117" height="95" fill="#A2BDF4"/>
<path d="M16.2222 139H133.254L146 168H0L16.2222 139Z" fill="#283F73"/>
<path d="M29.2777 145H119L126.5 163H20L29.2777 145Z" fill="white"/>
<rect x="23" y="50" width="102" height="83" fill="white" fill-opacity="0.82"/>
<path d="M0 168H146V258C146 260.761 143.761 263 141 263H5C2.23857 263 0 260.761 0 258V168Z" fill="#A2BDF4"/>
<rect x="15" y="204" width="117" height="47" rx="5" fill="#283F73"/>
<rect x="146" y="110" width="9" height="13" transform="rotate(90 146 110)" fill="#D9D9D9"/>
<rect x="155" y="119" width="9" height="31" transform="rotate(180 155 119)" fill="#D9D9D9"/>
<circle cx="150" cy="83" r="9" fill="#D9D9D9"/>
</svg>
