<svg width="144" height="169" viewBox="0 0 144 169" fill="none" xmlns="http://www.w3.org/2000/svg">
<path d="M7.5 63V33C7.5 30.2386 9.73857 28 12.5 28H143.5" stroke="#925948" stroke-opacity="0.83" stroke-width="15"/>
<rect x="32.5" width="97.9" height="57.2" rx="5" fill="#E9644D"/>
<rect x="49.2148" y="44.1342" width="65.6646" height="91.9305" fill="#E9644D"/>
<rect x="36.5" y="129" width="92" height="40" rx="5" fill="#E9644D"/>
<rect x="40.5" y="10" width="82" height="35" rx="5" fill="#FAD062"/>
<path d="M62.1582 20.6919H54.4458V25.6357H60.8926C61.4902 25.6357 61.9341 25.772 62.2241 26.0444C62.5229 26.3081 62.6724 26.6641 62.6724 27.1123C62.6724 27.5605 62.5229 27.9165 62.2241 28.1802C61.9253 28.4438 61.4814 28.5757 60.8926 28.5757H54.4458V34.9434C54.4458 35.752 54.2612 36.354 53.8921 36.7495C53.5317 37.1362 53.0659 37.3296 52.4946 37.3296C51.9146 37.3296 51.4399 37.1318 51.0708 36.7363C50.7104 36.3408 50.5303 35.7432 50.5303 34.9434V20.0723C50.5303 19.5098 50.6138 19.0527 50.7808 18.7012C50.9478 18.3408 51.207 18.0815 51.5586 17.9233C51.9189 17.7563 52.376 17.6729 52.9297 17.6729H62.1582C62.7822 17.6729 63.2437 17.8135 63.5425 18.0947C63.8501 18.3672 64.0039 18.7275 64.0039 19.1758C64.0039 19.6328 63.8501 20.002 63.5425 20.2832C63.2437 20.5557 62.7822 20.6919 62.1582 20.6919ZM67.0889 34.9434V19.7163C67.0889 18.9253 67.269 18.332 67.6294 17.9365C67.9897 17.541 68.4556 17.3433 69.0269 17.3433C69.6157 17.3433 70.0903 17.541 70.4507 17.9365C70.8198 18.3232 71.0044 18.9165 71.0044 19.7163V34.9434C71.0044 35.7432 70.8198 36.3408 70.4507 36.7363C70.0903 37.1318 69.6157 37.3296 69.0269 37.3296C68.4644 37.3296 67.9985 37.1318 67.6294 36.7363C67.269 36.332 67.0889 35.7344 67.0889 34.9434ZM80.4966 19.6899L88.0244 31.0806V19.5845C88.0244 18.8374 88.1826 18.2793 88.499 17.9102C88.8242 17.5322 89.2593 17.3433 89.8042 17.3433C90.3667 17.3433 90.8105 17.5322 91.1357 17.9102C91.4609 18.2793 91.6235 18.8374 91.6235 19.5845V34.7852C91.6235 36.4814 90.9204 37.3296 89.5142 37.3296C89.1626 37.3296 88.8462 37.2769 88.5649 37.1714C88.2837 37.0747 88.02 36.9165 87.7739 36.6968C87.5278 36.4771 87.2993 36.2222 87.0884 35.9321C86.8774 35.6333 86.6665 35.3301 86.4556 35.0225L79.1123 23.7637V35.0884C79.1123 35.8267 78.9409 36.3848 78.5981 36.7627C78.2554 37.1406 77.8159 37.3296 77.2798 37.3296C76.7261 37.3296 76.2822 37.1406 75.9482 36.7627C75.6143 36.376 75.4473 35.8179 75.4473 35.0884V20.1777C75.4473 19.5449 75.5176 19.0483 75.6582 18.688C75.8252 18.2925 76.1021 17.9717 76.4888 17.7256C76.8755 17.4707 77.293 17.3433 77.7412 17.3433C78.0928 17.3433 78.3916 17.4004 78.6377 17.5146C78.8926 17.6289 79.1123 17.7827 79.2969 17.9761C79.4902 18.1694 79.6836 18.4199 79.877 18.7275C80.0791 19.0352 80.2856 19.356 80.4966 19.6899ZM98.334 17.6729H103.436C104.763 17.6729 105.901 17.7959 106.851 18.042C107.8 18.2881 108.661 18.7495 109.435 19.4263C111.447 21.1489 112.454 23.7681 112.454 27.2837C112.454 28.4438 112.353 29.5029 112.15 30.4609C111.948 31.4189 111.636 32.2847 111.214 33.0581C110.792 33.8228 110.252 34.5083 109.593 35.1147C109.074 35.5806 108.507 35.9541 107.892 36.2354C107.277 36.5166 106.613 36.7144 105.901 36.8286C105.198 36.9429 104.403 37 103.515 37H98.4131C97.7012 37 97.165 36.8945 96.8047 36.6836C96.4443 36.4639 96.207 36.1606 96.0928 35.7739C95.9873 35.3784 95.9346 34.8687 95.9346 34.2446V20.0723C95.9346 19.2285 96.1235 18.6177 96.5015 18.2397C96.8794 17.8618 97.4902 17.6729 98.334 17.6729ZM99.8501 20.771V33.8887H102.816C103.467 33.8887 103.977 33.8711 104.346 33.8359C104.715 33.8008 105.097 33.7129 105.493 33.5723C105.888 33.4316 106.231 33.2339 106.521 32.979C107.831 31.8716 108.485 29.9644 108.485 27.2573C108.485 25.3501 108.195 23.9219 107.615 22.9727C107.044 22.0234 106.336 21.4214 105.493 21.1665C104.649 20.9028 103.629 20.771 102.434 20.771H99.8501Z" fill="#F58442"/>
<path d="M81.2905 97.2863L87.2103 92.6177L103.163 112.845C103.847 113.712 103.698 114.97 102.831 115.654L100.052 117.846C99.1843 118.53 97.9268 118.381 97.2428 117.514L81.2905 97.2863Z" fill="#FAD062"/>
<circle cx="77" cy="85.5" r="15.5" fill="#FAD062"/>
<circle cx="77" cy="85.5" r="12.5" fill="#F58442" fill-opacity="0.58"/>
<rect x="44.5" y="136" width="76" height="25" rx="5" fill="#FAD062"/>
<rect x="50.5" y="143" width="64" height="11" rx="2" fill="#F58442"/>
</svg>
