<svg width="271" height="311" viewBox="0 0 271 311" fill="none" xmlns="http://www.w3.org/2000/svg">
<path d="M232.699 68.7671L210.259 87.7257C207.779 89.8211 207.923 93.6876 210.552 95.5933L231.17 110.541" stroke="#283F73" stroke-width="10"/>
<path d="M232.329 68.9578L245.717 58.4772C248.194 56.5381 251.825 57.3409 253.254 60.1436L264.759 82.715" stroke="#283F73" stroke-width="10"/>
<rect x="58" y="235" width="124" height="55" rx="5" fill="#2B885C"/>
<path d="M161 226C161 220.222 159.952 214.5 157.917 209.162C155.882 203.824 152.899 198.973 149.138 194.887C145.377 190.802 140.912 187.561 135.999 185.349C131.085 183.138 125.819 182 120.5 182C115.181 182 109.915 183.138 105.001 185.349C100.088 187.561 95.6229 190.802 91.8622 194.887C88.1014 198.973 85.1182 203.824 83.0829 209.162C81.0476 214.5 80 220.222 80 226L120.5 226H161Z" fill="#EB679D"/>
<rect x="46" y="290" width="146" height="21" rx="5" fill="#283F73"/>
<rect x="74" y="222" width="92" height="13" rx="5" fill="#283F73"/>
<rect width="37.6228" height="108.087" rx="18.8114" transform="matrix(0.293607 0.955926 0.955926 -0.293607 108 41.7349)" fill="#EB679D"/>
<path d="M10.3831 78.7504C5.02986 54.2694 23.5448 31.0602 48.6033 30.8399L131.235 30.1136C141.9 30.0198 151.17 37.4152 153.449 47.8344C155.742 58.324 150.317 68.9752 140.483 73.2872L64.8044 106.472C41.9802 116.481 15.7069 103.097 10.3831 78.7504Z" fill="#2B885C"/>
<rect x="19" y="64.3654" width="39.9384" height="182.817" rx="19.9692" transform="rotate(-30.6586 19 64.3654)" fill="#F5A1C3"/>
<path d="M185.95 46.7137C180.107 39.3649 181.327 28.6705 188.676 22.827C196.025 16.9836 206.719 18.2039 212.562 25.5527L238.071 57.632L211.458 78.793L185.95 46.7137Z" fill="#2B885C"/>
<path d="M209.865 77.0775L236.465 55.9263L239.055 59.1827C239.742 60.0473 239.598 61.3055 238.734 61.9929L215.265 80.6545C214.4 81.342 213.142 81.1984 212.455 80.3339L209.865 77.0775Z" fill="#EB679D"/>
<circle cx="118.653" cy="193.189" r="15" transform="rotate(-30.6586 118.653 193.189)" fill="#FAD062"/>
<circle cx="46.6207" cy="71.5256" r="15" transform="rotate(-27.6998 46.6207 71.5256)" fill="#FAD062"/>
<circle cx="134.371" cy="52.5366" r="15" transform="rotate(-15 134.371 52.5366)" fill="#FAD062"/>
<circle cx="199.131" cy="36.0674" r="13.3968" transform="rotate(-35.3789 199.131 36.0674)" fill="#283F73"/>
<path d="M79.6758 269.41L76.9219 258.465V270.324C76.9219 270.98 76.7734 271.473 76.4766 271.801C76.1875 272.129 75.8008 272.293 75.3164 272.293C74.8477 272.293 74.4648 272.133 74.168 271.812C73.8711 271.484 73.7227 270.988 73.7227 270.324V256.73C73.7227 255.98 73.918 255.477 74.3086 255.219C74.6992 254.953 75.2266 254.82 75.8906 254.82H76.9688C77.6172 254.82 78.0859 254.879 78.375 254.996C78.6719 255.113 78.8906 255.324 79.0312 255.629C79.1719 255.934 79.332 256.43 79.5117 257.117L82.0078 266.527L84.5039 257.117C84.6836 256.43 84.8438 255.934 84.9844 255.629C85.125 255.324 85.3398 255.113 85.6289 254.996C85.9258 254.879 86.3984 254.82 87.0469 254.82H88.125C88.7891 254.82 89.3164 254.953 89.707 255.219C90.0977 255.477 90.293 255.98 90.293 256.73V270.324C90.293 270.98 90.1445 271.473 89.8477 271.801C89.5586 272.129 89.168 272.293 88.6758 272.293C88.2148 272.293 87.8359 272.129 87.5391 271.801C87.2422 271.473 87.0938 270.98 87.0938 270.324V258.465L84.3398 269.41C84.1602 270.121 84.0117 270.645 83.8945 270.98C83.7852 271.309 83.5781 271.609 83.2734 271.883C82.9688 272.156 82.5469 272.293 82.0078 272.293C81.6016 272.293 81.2578 272.203 80.9766 272.023C80.6953 271.852 80.4766 271.629 80.3203 271.355C80.1641 271.082 80.0391 270.781 79.9453 270.453C79.8594 270.117 79.7695 269.77 79.6758 269.41ZM101.426 254.527C103.207 254.527 104.734 254.891 106.008 255.617C107.289 256.336 108.258 257.363 108.914 258.699C109.57 260.027 109.898 261.59 109.898 263.387C109.898 264.715 109.719 265.922 109.359 267.008C109 268.094 108.461 269.035 107.742 269.832C107.023 270.629 106.141 271.238 105.094 271.66C104.047 272.082 102.848 272.293 101.496 272.293C100.152 272.293 98.9492 272.078 97.8867 271.648C96.8242 271.211 95.9375 270.598 95.2266 269.809C94.5156 269.02 93.9766 268.07 93.6094 266.961C93.25 265.852 93.0703 264.652 93.0703 263.363C93.0703 262.043 93.2578 260.832 93.6328 259.73C94.0156 258.629 94.5664 257.691 95.2852 256.918C96.0039 256.145 96.8789 255.555 97.9102 255.148C98.9414 254.734 100.113 254.527 101.426 254.527ZM106.371 263.363C106.371 262.105 106.168 261.016 105.762 260.094C105.355 259.172 104.773 258.477 104.016 258.008C103.266 257.531 102.402 257.293 101.426 257.293C100.73 257.293 100.086 257.426 99.4922 257.691C98.9062 257.949 98.3984 258.328 97.9688 258.828C97.5469 259.328 97.2109 259.969 96.9609 260.75C96.7188 261.523 96.5977 262.395 96.5977 263.363C96.5977 264.34 96.7188 265.223 96.9609 266.012C97.2109 266.801 97.5586 267.457 98.0039 267.98C98.457 268.496 98.9727 268.883 99.5508 269.141C100.137 269.398 100.777 269.527 101.473 269.527C102.363 269.527 103.18 269.305 103.922 268.859C104.672 268.414 105.266 267.727 105.703 266.797C106.148 265.867 106.371 264.723 106.371 263.363ZM114.785 256.812L118.676 268.332L122.578 256.73C122.781 256.121 122.934 255.699 123.035 255.465C123.137 255.223 123.305 255.008 123.539 254.82C123.773 254.625 124.094 254.527 124.5 254.527C124.797 254.527 125.07 254.602 125.32 254.75C125.578 254.898 125.777 255.098 125.918 255.348C126.066 255.59 126.141 255.836 126.141 256.086C126.141 256.258 126.117 256.445 126.07 256.648C126.023 256.844 125.965 257.039 125.895 257.234C125.824 257.422 125.754 257.617 125.684 257.82L121.523 269.047C121.375 269.477 121.227 269.887 121.078 270.277C120.93 270.66 120.758 271 120.562 271.297C120.367 271.586 120.105 271.824 119.777 272.012C119.457 272.199 119.062 272.293 118.594 272.293C118.125 272.293 117.727 272.199 117.398 272.012C117.078 271.832 116.816 271.594 116.613 271.297C116.418 270.992 116.246 270.648 116.098 270.266C115.949 269.883 115.801 269.477 115.652 269.047L111.562 257.914C111.492 257.711 111.418 257.512 111.34 257.316C111.27 257.121 111.207 256.91 111.152 256.684C111.105 256.457 111.082 256.266 111.082 256.109C111.082 255.711 111.242 255.348 111.562 255.02C111.883 254.691 112.285 254.527 112.77 254.527C113.363 254.527 113.781 254.711 114.023 255.078C114.273 255.438 114.527 256.016 114.785 256.812ZM140.086 257.504H132.246V261.723H139.465C139.996 261.723 140.391 261.844 140.648 262.086C140.914 262.32 141.047 262.633 141.047 263.023C141.047 263.414 140.918 263.734 140.66 263.984C140.402 264.227 140.004 264.348 139.465 264.348H132.246V269.234H140.355C140.902 269.234 141.312 269.363 141.586 269.621C141.867 269.871 142.008 270.207 142.008 270.629C142.008 271.035 141.867 271.367 141.586 271.625C141.312 271.875 140.902 272 140.355 272H130.898C130.141 272 129.594 271.832 129.258 271.496C128.93 271.16 128.766 270.617 128.766 269.867V256.953C128.766 256.453 128.84 256.047 128.988 255.734C129.137 255.414 129.367 255.184 129.68 255.043C130 254.895 130.406 254.82 130.898 254.82H140.086C140.641 254.82 141.051 254.945 141.316 255.195C141.59 255.438 141.727 255.758 141.727 256.156C141.727 256.562 141.59 256.891 141.316 257.141C141.051 257.383 140.641 257.504 140.086 257.504ZM150.914 270.172V256.637C150.914 255.934 151.074 255.406 151.395 255.055C151.715 254.703 152.129 254.527 152.637 254.527C153.16 254.527 153.582 254.703 153.902 255.055C154.23 255.398 154.395 255.926 154.395 256.637V270.172C154.395 270.883 154.23 271.414 153.902 271.766C153.582 272.117 153.16 272.293 152.637 272.293C152.137 272.293 151.723 272.117 151.395 271.766C151.074 271.406 150.914 270.875 150.914 270.172ZM169.453 257.691H165.656V270.172C165.656 270.891 165.496 271.426 165.176 271.777C164.855 272.121 164.441 272.293 163.934 272.293C163.418 272.293 162.996 272.117 162.668 271.766C162.348 271.414 162.188 270.883 162.188 270.172V257.691H158.391C157.797 257.691 157.355 257.562 157.066 257.305C156.777 257.039 156.633 256.691 156.633 256.262C156.633 255.816 156.781 255.465 157.078 255.207C157.383 254.949 157.82 254.82 158.391 254.82H169.453C170.055 254.82 170.5 254.953 170.789 255.219C171.086 255.484 171.234 255.832 171.234 256.262C171.234 256.691 171.086 257.039 170.789 257.305C170.492 257.562 170.047 257.691 169.453 257.691Z" fill="#FAD062"/>
<circle cx="46.5" cy="71.5" r="6.5" fill="#EB679D"/>
<circle cx="199" cy="36" r="6" fill="#FAD062"/>
<circle cx="118.5" cy="193.5" r="6.5" fill="#EB679D"/>
<circle cx="134.5" cy="52.5" r="5.5" fill="#EB679D"/>
</svg>
