<svg width="252" height="163" viewBox="0 0 252 163" fill="none" xmlns="http://www.w3.org/2000/svg">
<rect x="31" width="29" height="11" rx="1" fill="#925948"/>
<rect y="11" width="91" height="152" rx="5" fill="#F58442"/>
<rect x="40" y="49" width="70" height="14" fill="#E9644D"/>
<rect x="110" y="38" width="142" height="35" rx="5" fill="#E9644D"/>
<path d="M121.835 58.3086H118.648V63.1719C118.648 63.8672 118.484 64.3945 118.156 64.7539C117.827 65.1133 117.413 65.293 116.913 65.293C116.39 65.293 115.968 65.1172 115.648 64.7656C115.327 64.4062 115.167 63.8828 115.167 63.1953V49.9531C115.167 49.1875 115.343 48.6406 115.695 48.3125C116.046 47.9844 116.605 47.8203 117.37 47.8203H121.835C123.156 47.8203 124.171 47.9219 124.882 48.125C125.585 48.3203 126.191 48.6445 126.699 49.0977C127.214 49.5508 127.605 50.1055 127.87 50.7617C128.136 51.418 128.269 52.1562 128.269 52.9766C128.269 54.7266 127.73 56.0547 126.652 56.9609C125.574 57.8594 123.968 58.3086 121.835 58.3086ZM120.992 50.4336H118.648V55.6836H120.992C121.812 55.6836 122.495 55.5977 123.042 55.4258C123.597 55.2539 124.019 54.9727 124.308 54.582C124.597 54.1914 124.742 53.6797 124.742 53.0469C124.742 52.2891 124.519 51.6719 124.074 51.1953C123.574 50.6875 122.546 50.4336 120.992 50.4336ZM139.578 63.0547L138.758 60.8984H131.773L130.953 63.1016C130.633 63.9609 130.359 64.543 130.133 64.8477C129.906 65.1445 129.535 65.293 129.019 65.293C128.582 65.293 128.195 65.1328 127.859 64.8125C127.523 64.4922 127.355 64.1289 127.355 63.7227C127.355 63.4883 127.394 63.2461 127.472 62.9961C127.551 62.7461 127.68 62.3984 127.859 61.9531L132.254 50.7969C132.379 50.4766 132.527 50.0938 132.699 49.6484C132.879 49.1953 133.066 48.8203 133.262 48.5234C133.465 48.2266 133.726 47.9883 134.047 47.8086C134.375 47.6211 134.777 47.5273 135.254 47.5273C135.738 47.5273 136.14 47.6211 136.461 47.8086C136.789 47.9883 137.051 48.2227 137.246 48.5117C137.449 48.8008 137.617 49.1133 137.75 49.4492C137.89 49.7773 138.066 50.2188 138.277 50.7734L142.765 61.8594C143.117 62.7031 143.293 63.3164 143.293 63.6992C143.293 64.0977 143.125 64.4648 142.789 64.8008C142.461 65.1289 142.062 65.293 141.594 65.293C141.32 65.293 141.086 65.2422 140.89 65.1406C140.695 65.0469 140.531 64.918 140.398 64.7539C140.265 64.582 140.121 64.3242 139.965 63.9805C139.816 63.6289 139.687 63.3203 139.578 63.0547ZM132.687 58.2852H137.82L135.23 51.1953L132.687 58.2852ZM145.52 63.1719V49.6367C145.52 48.9336 145.68 48.4062 146 48.0547C146.321 47.7031 146.735 47.5273 147.243 47.5273C147.766 47.5273 148.188 47.7031 148.508 48.0547C148.836 48.3984 149 48.9258 149 49.6367V63.1719C149 63.8828 148.836 64.4141 148.508 64.7656C148.188 65.1172 147.766 65.293 147.243 65.293C146.743 65.293 146.328 65.1172 146 64.7656C145.68 64.4062 145.52 63.875 145.52 63.1719ZM156.958 49.6133L163.649 59.7383V49.5195C163.649 48.8555 163.79 48.3594 164.071 48.0312C164.36 47.6953 164.747 47.5273 165.231 47.5273C165.731 47.5273 166.126 47.6953 166.415 48.0312C166.704 48.3594 166.848 48.8555 166.848 49.5195V63.0312C166.848 64.5391 166.223 65.293 164.973 65.293C164.661 65.293 164.38 65.2461 164.13 65.1523C163.88 65.0664 163.645 64.9258 163.427 64.7305C163.208 64.5352 163.005 64.3086 162.817 64.0508C162.63 63.7852 162.442 63.5156 162.255 63.2422L155.727 53.2344V63.3008C155.727 63.957 155.575 64.4531 155.27 64.7891C154.966 65.125 154.575 65.293 154.098 65.293C153.606 65.293 153.212 65.125 152.915 64.7891C152.618 64.4453 152.47 63.9492 152.47 63.3008V50.0469C152.47 49.4844 152.532 49.043 152.657 48.7227C152.805 48.3711 153.052 48.0859 153.395 47.8672C153.739 47.6406 154.11 47.5273 154.509 47.5273C154.821 47.5273 155.087 47.5781 155.305 47.6797C155.532 47.7812 155.727 47.918 155.891 48.0898C156.063 48.2617 156.235 48.4844 156.407 48.7578C156.587 49.0312 156.77 49.3164 156.958 49.6133ZM181.333 50.6914H177.536V63.1719C177.536 63.8906 177.376 64.4258 177.056 64.7773C176.736 65.1211 176.322 65.293 175.814 65.293C175.298 65.293 174.876 65.1172 174.548 64.7656C174.228 64.4141 174.068 63.8828 174.068 63.1719V50.6914H170.271C169.677 50.6914 169.236 50.5625 168.947 50.3047C168.658 50.0391 168.513 49.6914 168.513 49.2617C168.513 48.8164 168.661 48.4648 168.958 48.207C169.263 47.9492 169.7 47.8203 170.271 47.8203H181.333C181.935 47.8203 182.38 47.9531 182.669 48.2188C182.966 48.4844 183.115 48.832 183.115 49.2617C183.115 49.6914 182.966 50.0391 182.669 50.3047C182.372 50.5625 181.927 50.6914 181.333 50.6914ZM190.358 63.1719V49.6367C190.358 48.9336 190.518 48.4062 190.838 48.0547C191.158 47.7031 191.573 47.5273 192.08 47.5273C192.604 47.5273 193.026 47.7031 193.346 48.0547C193.674 48.3984 193.838 48.9258 193.838 49.6367V63.1719C193.838 63.8828 193.674 64.4141 193.346 64.7656C193.026 65.1172 192.604 65.293 192.08 65.293C191.58 65.293 191.166 65.1172 190.838 64.7656C190.518 64.4062 190.358 63.875 190.358 63.1719ZM208.417 50.6914H204.62V63.1719C204.62 63.8906 204.46 64.4258 204.139 64.7773C203.819 65.1211 203.405 65.293 202.897 65.293C202.382 65.293 201.96 65.1172 201.632 64.7656C201.311 64.4141 201.151 63.8828 201.151 63.1719V50.6914H197.354C196.76 50.6914 196.319 50.5625 196.03 50.3047C195.741 50.0391 195.596 49.6914 195.596 49.2617C195.596 48.8164 195.745 48.4648 196.042 48.207C196.346 47.9492 196.784 47.8203 197.354 47.8203H208.417C209.018 47.8203 209.464 47.9531 209.753 48.2188C210.05 48.4844 210.198 48.832 210.198 49.2617C210.198 49.6914 210.05 50.0391 209.753 50.3047C209.456 50.5625 209.01 50.6914 208.417 50.6914ZM217.324 57.8984V49.6367C217.324 48.9336 217.48 48.4062 217.793 48.0547C218.113 47.7031 218.531 47.5273 219.047 47.5273C219.586 47.5273 220.011 47.7031 220.324 48.0547C220.644 48.4062 220.804 48.9336 220.804 49.6367V58.0859C220.804 59.0469 220.91 59.8516 221.121 60.5C221.34 61.1406 221.722 61.6406 222.269 62C222.816 62.3516 223.582 62.5273 224.566 62.5273C225.925 62.5273 226.886 62.168 227.449 61.4492C228.011 60.7227 228.293 59.625 228.293 58.1562V49.6367C228.293 48.9258 228.449 48.3984 228.761 48.0547C229.074 47.7031 229.492 47.5273 230.015 47.5273C230.539 47.5273 230.961 47.7031 231.281 48.0547C231.609 48.3984 231.773 48.9258 231.773 49.6367V57.8984C231.773 59.2422 231.64 60.3633 231.375 61.2617C231.117 62.1602 230.625 62.9492 229.898 63.6289C229.273 64.207 228.547 64.6289 227.718 64.8945C226.89 65.1602 225.922 65.293 224.812 65.293C223.492 65.293 222.355 65.1523 221.402 64.8711C220.449 64.582 219.672 64.1406 219.07 63.5469C218.468 62.9453 218.027 62.1797 217.746 61.25C217.465 60.3125 217.324 59.1953 217.324 57.8984ZM241.723 58.3086H238.535V63.1719C238.535 63.8672 238.371 64.3945 238.043 64.7539C237.715 65.1133 237.301 65.293 236.801 65.293C236.277 65.293 235.856 65.1172 235.535 64.7656C235.215 64.4062 235.055 63.8828 235.055 63.1953V49.9531C235.055 49.1875 235.231 48.6406 235.582 48.3125C235.934 47.9844 236.492 47.8203 237.258 47.8203H241.723C243.043 47.8203 244.059 47.9219 244.77 48.125C245.473 48.3203 246.078 48.6445 246.586 49.0977C247.102 49.5508 247.492 50.1055 247.758 50.7617C248.024 51.418 248.156 52.1562 248.156 52.9766C248.156 54.7266 247.617 56.0547 246.539 56.9609C245.461 57.8594 243.856 58.3086 241.723 58.3086ZM240.879 50.4336H238.535V55.6836H240.879C241.699 55.6836 242.383 55.5977 242.93 55.4258C243.485 55.2539 243.906 54.9727 244.195 54.582C244.485 54.1914 244.629 53.6797 244.629 53.0469C244.629 52.2891 244.406 51.6719 243.961 51.1953C243.461 50.6875 242.434 50.4336 240.879 50.4336Z" fill="#FAD062"/>
<circle cx="45.5" cy="55.5" r="18.5" fill="#E9644D"/>
<rect x="40.5037" y="32.9144" width="9.91435" height="28.5038" fill="#FAD062"/>
<rect x="36.7859" y="23" width="17.3501" height="9.91435" rx="2" fill="#FAD062"/>
<rect x="69.0076" y="51.5038" width="9.91435" height="28.5038" transform="rotate(90 69.0076 51.5038)" fill="#FAD062"/>
<rect x="78.9219" y="47.7859" width="17.3501" height="9.91435" rx="2" transform="rotate(90 78.9219 47.7859)" fill="#FAD062"/>
<rect x="50.4182" y="80.0075" width="9.91435" height="28.5038" transform="rotate(180 50.4182 80.0075)" fill="#FAD062"/>
<rect x="54.136" y="89.9219" width="17.3501" height="9.91435" rx="2" transform="rotate(180 54.136 89.9219)" fill="#FAD062"/>
<rect x="21.9143" y="61.4181" width="9.91435" height="28.5038" transform="rotate(-90 21.9143 61.4181)" fill="#FAD062"/>
<rect x="12" y="65.136" width="17.3501" height="9.91435" rx="2" transform="rotate(-90 12 65.136)" fill="#FAD062"/>
<rect x="4" y="15" width="82" height="82" rx="5" fill="white" fill-opacity="0.34"/>
<rect x="6" y="129" width="78" height="30" rx="2" fill="#FAD062"/>
<rect x="67" y="145" width="12" height="12" rx="2" fill="#EB679D"/>
<rect x="53" y="145" width="12" height="12" rx="2" fill="#283F73"/>
<rect x="67" y="131" width="12" height="12" rx="2" fill="#2B885C"/>
<rect x="53" y="131" width="12" height="12" rx="2" fill="#E9644D"/>
<rect x="39" y="145" width="12" height="12" rx="2" fill="#2B885C"/>
<rect x="25" y="145" width="12" height="12" rx="2" fill="#E9644D"/>
<rect x="39" y="131" width="12" height="12" rx="2" fill="#EB679D"/>
<rect x="25" y="131" width="12" height="12" rx="2" fill="#283F73"/>
<rect x="11" y="145" width="12" height="12" rx="2" fill="#2B885C"/>
<rect x="11" y="131" width="12" height="12" rx="2" fill="#E9644D"/>
<circle cx="14.5" cy="24.5" r="5.5" fill="#F58442"/>
<circle cx="76.5" cy="24.5" r="5.5" fill="#F58442"/>
<circle cx="14.5" cy="86.5" r="5.5" fill="#F58442"/>
<circle cx="76.5" cy="86.5" r="5.5" fill="#F58442"/>
</svg>
