<svg width="120" height="78" viewBox="0 0 120 78" fill="none" xmlns="http://www.w3.org/2000/svg">
<rect x="19" y="4" width="36" height="36" fill="#A2BDF4"/>
<path d="M19 0H55V6H19V0Z" fill="#283F73"/>
<path d="M64 0H100V6H64V0Z" fill="#283F73"/>
<rect x="64" y="6" width="36" height="34" fill="#A2BDF4"/>
<rect y="40" width="120" height="38" rx="5" fill="#2B885C"/>
<rect x="35" width="4" height="10" fill="#EB679D"/>
<rect x="80" width="4" height="10" fill="#EB679D"/>
<path d="M13.187 60.5874H10.1323V65.248C10.1323 65.9144 9.9751 66.4198 9.66064 66.7642C9.34619 67.1086 8.94938 67.2808 8.47021 67.2808C7.96859 67.2808 7.56429 67.1123 7.25732 66.7754C6.95036 66.431 6.79688 65.9294 6.79688 65.2705V52.5801C6.79688 51.8464 6.96533 51.3223 7.30225 51.0078C7.63916 50.6934 8.17448 50.5361 8.9082 50.5361H13.187C14.4523 50.5361 15.4256 50.6335 16.1069 50.8281C16.7808 51.0153 17.361 51.326 17.8477 51.7603C18.3418 52.1945 18.7161 52.7261 18.9707 53.355C19.2253 53.9839 19.3525 54.6914 19.3525 55.4775C19.3525 57.1546 18.8359 58.4274 17.8027 59.2959C16.7695 60.1569 15.231 60.5874 13.187 60.5874ZM12.3784 53.0405H10.1323V58.0718H12.3784C13.1646 58.0718 13.8197 57.9894 14.3438 57.8247C14.8753 57.66 15.2796 57.3905 15.5566 57.0161C15.8337 56.6418 15.9722 56.1514 15.9722 55.5449C15.9722 54.8187 15.7588 54.2272 15.332 53.7705C14.8529 53.2839 13.8683 53.0405 12.3784 53.0405ZM26.6187 59.9585H25.4507V65.248C25.4507 65.9443 25.2972 66.4572 24.9902 66.7866C24.6833 67.116 24.2827 67.2808 23.7886 67.2808C23.257 67.2808 22.8452 67.1086 22.5532 66.7642C22.2612 66.4198 22.1152 65.9144 22.1152 65.248V52.5801C22.1152 51.8613 22.2762 51.341 22.5981 51.019C22.9201 50.6971 23.4404 50.5361 24.1592 50.5361H29.5835C30.3322 50.5361 30.9723 50.5698 31.5039 50.6372C32.0355 50.6971 32.5146 50.8244 32.9414 51.019C33.458 51.2362 33.9147 51.5469 34.3115 51.9512C34.7083 52.3555 35.0078 52.8271 35.21 53.3662C35.4196 53.8978 35.5244 54.4631 35.5244 55.062C35.5244 56.2899 35.1763 57.2707 34.48 58.0044C33.7912 58.7381 32.743 59.2585 31.3354 59.5654C31.9269 59.8799 32.4922 60.3441 33.0312 60.958C33.5703 61.5719 34.0495 62.2271 34.4688 62.9233C34.8955 63.6121 35.2249 64.2373 35.457 64.7988C35.6966 65.3529 35.8164 65.7347 35.8164 65.9443C35.8164 66.1615 35.7453 66.3786 35.603 66.5957C35.4683 66.8053 35.2811 66.9701 35.0415 67.0898C34.8019 67.2171 34.5249 67.2808 34.2104 67.2808C33.8361 67.2808 33.5216 67.1909 33.2671 67.0112C33.0125 66.839 32.7917 66.6182 32.6045 66.3486C32.4248 66.0791 32.1777 65.6823 31.8633 65.1582L30.5269 62.9346C30.0477 62.1185 29.6172 61.4971 29.2354 61.0703C28.861 60.6436 28.4792 60.3516 28.0898 60.1943C27.7005 60.0371 27.2101 59.9585 26.6187 59.9585ZM28.5278 53.0405H25.4507V57.5664H28.438C29.2391 57.5664 29.9129 57.499 30.4595 57.3643C31.006 57.222 31.4215 56.9862 31.7061 56.6567C31.998 56.3198 32.144 55.8594 32.144 55.2754C32.144 54.8187 32.028 54.4181 31.7959 54.0737C31.5638 53.7218 31.2419 53.4598 30.8301 53.2876C30.4408 53.1229 29.6733 53.0405 28.5278 53.0405ZM49.54 53.1079H42.0269V57.1509H48.9448C49.4539 57.1509 49.832 57.2669 50.0791 57.499C50.3337 57.7236 50.4609 58.0231 50.4609 58.3975C50.4609 58.7718 50.3374 59.0788 50.0903 59.3184C49.8433 59.5505 49.4614 59.6665 48.9448 59.6665H42.0269V64.3496H49.7983C50.3224 64.3496 50.7155 64.4731 50.9775 64.7202C51.2471 64.9598 51.3818 65.2817 51.3818 65.686C51.3818 66.0754 51.2471 66.3936 50.9775 66.6406C50.7155 66.8802 50.3224 67 49.7983 67H40.7354C40.0091 67 39.485 66.839 39.1631 66.5171C38.8486 66.1951 38.6914 65.6748 38.6914 64.9561V52.5801C38.6914 52.1009 38.7625 51.7116 38.9048 51.4121C39.047 51.1051 39.2679 50.8843 39.5674 50.7495C39.8743 50.6073 40.2637 50.5361 40.7354 50.5361H49.54C50.0716 50.5361 50.4647 50.6559 50.7192 50.8955C50.9813 51.1276 51.1123 51.4346 51.1123 51.8164C51.1123 52.2057 50.9813 52.5202 50.7192 52.7598C50.4647 52.9919 50.0716 53.1079 49.54 53.1079ZM66.543 62.0586C66.543 63.0544 66.2847 63.9491 65.7681 64.7427C65.259 65.5363 64.5103 66.1577 63.522 66.6069C62.5337 67.0562 61.362 67.2808 60.0068 67.2808C58.3822 67.2808 57.042 66.9738 55.9863 66.3599C55.2376 65.9181 54.6274 65.3304 54.1558 64.5967C53.6916 63.8555 53.4595 63.1367 53.4595 62.4404C53.4595 62.0361 53.598 61.6917 53.875 61.4072C54.1595 61.1152 54.5189 60.9692 54.9531 60.9692C55.305 60.9692 55.6007 61.0815 55.8403 61.3062C56.0874 61.5308 56.297 61.8639 56.4692 62.3057C56.6789 62.8298 56.9035 63.2677 57.1431 63.6196C57.3901 63.9715 57.7345 64.2635 58.1763 64.4956C58.618 64.7202 59.1982 64.8325 59.917 64.8325C60.9053 64.8325 61.7064 64.6042 62.3203 64.1475C62.9417 63.6833 63.2524 63.1068 63.2524 62.418C63.2524 61.8714 63.084 61.4297 62.7471 61.0928C62.4176 60.7484 61.9871 60.4863 61.4556 60.3066C60.9315 60.127 60.2277 59.936 59.3442 59.7339C58.1613 59.4569 57.1693 59.1349 56.3682 58.7681C55.5745 58.3937 54.9419 57.8883 54.4702 57.252C54.006 56.6081 53.7739 55.8107 53.7739 54.8599C53.7739 53.9539 54.021 53.1491 54.5151 52.4453C55.0093 51.7415 55.7243 51.2025 56.6602 50.8281C57.596 50.4463 58.6966 50.2554 59.9619 50.2554C60.9727 50.2554 61.8449 50.3826 62.5786 50.6372C63.3198 50.8843 63.9338 51.2174 64.4204 51.6367C64.9071 52.0485 65.2627 52.4827 65.4873 52.9395C65.7119 53.3962 65.8242 53.8416 65.8242 54.2759C65.8242 54.6727 65.682 55.0321 65.3975 55.354C65.1204 55.6685 64.7723 55.8257 64.353 55.8257C63.9712 55.8257 63.6792 55.7321 63.4771 55.5449C63.2824 55.3503 63.069 55.0358 62.8369 54.6016C62.5374 53.9801 62.1781 53.4972 61.7588 53.1528C61.3395 52.8009 60.6657 52.625 59.7373 52.625C58.8763 52.625 58.18 52.8159 57.6484 53.1978C57.1243 53.5721 56.8623 54.0251 56.8623 54.5566C56.8623 54.8861 56.9521 55.1706 57.1318 55.4102C57.3115 55.6497 57.5586 55.8556 57.873 56.0278C58.1875 56.2 58.5057 56.3348 58.8276 56.4321C59.1496 56.5295 59.6812 56.6717 60.4224 56.8589C61.3507 57.076 62.1893 57.3156 62.938 57.5776C63.6942 57.8397 64.3343 58.1579 64.8584 58.5322C65.39 58.9066 65.8018 59.382 66.0938 59.9585C66.3932 60.5275 66.543 61.2275 66.543 62.0586ZM80.2217 53.1079H72.7085V57.1509H79.6265C80.1356 57.1509 80.5137 57.2669 80.7607 57.499C81.0153 57.7236 81.1426 58.0231 81.1426 58.3975C81.1426 58.7718 81.019 59.0788 80.772 59.3184C80.5249 59.5505 80.1431 59.6665 79.6265 59.6665H72.7085V64.3496H80.48C81.0041 64.3496 81.3971 64.4731 81.6592 64.7202C81.9287 64.9598 82.0635 65.2817 82.0635 65.686C82.0635 66.0754 81.9287 66.3936 81.6592 66.6406C81.3971 66.8802 81.0041 67 80.48 67H71.417C70.6908 67 70.1667 66.839 69.8447 66.5171C69.5303 66.1951 69.373 65.6748 69.373 64.9561V52.5801C69.373 52.1009 69.4442 51.7116 69.5864 51.4121C69.7287 51.1051 69.9495 50.8843 70.249 50.7495C70.556 50.6073 70.9453 50.5361 71.417 50.5361H80.2217C80.7533 50.5361 81.1463 50.6559 81.4009 50.8955C81.6629 51.1276 81.7939 51.4346 81.7939 51.8164C81.7939 52.2057 81.6629 52.5202 81.4009 52.7598C81.1463 52.9919 80.7533 53.1079 80.2217 53.1079ZM89.0601 52.2544L95.4727 61.9575V52.1646C95.4727 51.5282 95.6074 51.0527 95.877 50.7383C96.154 50.4163 96.5246 50.2554 96.9888 50.2554C97.4679 50.2554 97.846 50.4163 98.123 50.7383C98.4001 51.0527 98.5386 51.5282 98.5386 52.1646V65.1133C98.5386 66.5583 97.9396 67.2808 96.7417 67.2808C96.4422 67.2808 96.1727 67.2358 95.9331 67.146C95.6935 67.0636 95.4689 66.9289 95.2593 66.7417C95.0496 66.5545 94.855 66.3374 94.6753 66.0903C94.4956 65.8358 94.3159 65.5775 94.1362 65.3154L87.8809 55.7246V65.3716C87.8809 66.0005 87.7349 66.4759 87.4429 66.7979C87.1509 67.1198 86.7765 67.2808 86.3198 67.2808C85.8481 67.2808 85.4701 67.1198 85.1855 66.7979C84.901 66.4684 84.7588 65.993 84.7588 65.3716V52.6699C84.7588 52.1309 84.8187 51.7078 84.9385 51.4009C85.0807 51.064 85.3166 50.7907 85.646 50.5811C85.9754 50.3639 86.3311 50.2554 86.7129 50.2554C87.0124 50.2554 87.2669 50.304 87.4766 50.4014C87.6937 50.4987 87.8809 50.6297 88.0381 50.7944C88.2028 50.9591 88.3675 51.1725 88.5322 51.4346C88.7044 51.6966 88.8804 51.9699 89.0601 52.2544ZM112.88 53.2876H109.241V65.248C109.241 65.9368 109.088 66.4497 108.781 66.7866C108.474 67.116 108.077 67.2808 107.59 67.2808C107.096 67.2808 106.692 67.1123 106.377 66.7754C106.07 66.4385 105.917 65.9294 105.917 65.248V53.2876H102.278C101.709 53.2876 101.286 53.1641 101.009 52.917C100.732 52.6624 100.594 52.3293 100.594 51.9175C100.594 51.4907 100.736 51.1538 101.021 50.9067C101.312 50.6597 101.732 50.5361 102.278 50.5361H112.88C113.456 50.5361 113.883 50.6634 114.16 50.918C114.445 51.1725 114.587 51.5057 114.587 51.9175C114.587 52.3293 114.445 52.6624 114.16 52.917C113.876 53.1641 113.449 53.2876 112.88 53.2876Z" fill="white"/>
</svg>
