<svg width="86" height="111" viewBox="0 0 86 111" fill="none" xmlns="http://www.w3.org/2000/svg">
<rect x="86" y="111" width="86" height="111" rx="10" transform="rotate(180 86 111)" fill="#2B885C"/>
<path d="M72 10C74.7614 10 77 12.2386 77 15V73C77 75.7614 74.7614 78 72 78H14C11.2386 78 9 75.7614 9 73V15C9 12.2386 11.2386 10 14 10H72Z" fill="#FAD062"/>
<circle cx="44.5" cy="44.5" r="27.5" transform="rotate(90 44.5 44.5)" fill="#E9644D"/>
<circle cx="71" cy="16" r="4" transform="rotate(90 71 16)" fill="#E9644D"/>
<circle cx="16" cy="96" r="7" transform="rotate(90 16 96)" fill="#E9644D"/>
<circle cx="43" cy="96" r="7" transform="rotate(90 43 96)" fill="#E9644D"/>
<circle cx="70" cy="96" r="7" transform="rotate(90 70 96)" fill="#E9644D"/>
<circle cx="71" cy="71" r="4" transform="rotate(90 71 71)" fill="#E9644D"/>
<circle cx="15" cy="16" r="4" transform="rotate(90 15 16)" fill="#E9644D"/>
<circle cx="15" cy="71" r="4" transform="rotate(90 15 71)" fill="#E9644D"/>
<rect x="47" y="84" width="1" height="1" transform="rotate(90 47 84)" fill="#D9D9D9"/>
<path d="M62.3992 39.6311C64.8859 39.1064 67.2251 41.0035 67.2251 43.5449V45.0238H45.1212C44.6442 45.0238 44.2575 44.6371 44.2575 44.16C44.2575 43.7517 44.5434 43.3991 44.9429 43.3148L62.3992 39.6311Z" fill="#FAD062"/>
<path d="M62.4464 50.1052C64.9199 50.5961 67.2251 48.7035 67.2251 46.1817V45.0239H45.0654C44.6192 45.0239 44.2575 45.3856 44.2575 45.8318C44.2575 46.2174 44.5299 46.5492 44.9081 46.6243L62.4464 50.1052Z" fill="#FAD062"/>
<path d="M49.1657 62.5968C49.6904 65.0835 47.7934 67.4227 45.2519 67.4227H43.773V45.3189C43.773 44.8418 44.1598 44.4551 44.6368 44.4551C45.0451 44.4551 45.3977 44.741 45.482 45.1405L49.1657 62.5968Z" fill="#FAD062"/>
<path d="M38.6919 62.644C38.2009 65.1176 40.0935 67.4227 42.6153 67.4227H43.7732V45.263C43.7732 44.8168 43.4114 44.4551 42.9652 44.4551C42.5797 44.4551 42.2478 44.7275 42.1728 45.1057L38.6919 62.644Z" fill="#FAD062"/>
<path d="M38.6776 25.172C38.1528 22.6853 40.0499 20.3461 42.5914 20.3461H44.0702V42.4499C44.0702 42.927 43.6835 43.3137 43.2064 43.3137C42.7981 43.3137 42.4456 43.0278 42.3613 42.6283L38.6776 25.172Z" fill="#FAD062"/>
<path d="M49.1516 25.1249C49.6426 22.6514 47.75 20.3462 45.2282 20.3462H44.0703V42.5059C44.0703 42.9521 44.4321 43.3138 44.8783 43.3138C45.2638 43.3138 45.5957 43.0414 45.6707 42.6632L49.1516 25.1249Z" fill="#FAD062"/>
<path d="M25.5283 50.1355C23.0416 50.6602 20.7024 48.7631 20.7024 46.2217V44.7428H42.8063C43.2833 44.7428 43.67 45.1295 43.67 45.6066C43.67 46.0149 43.3841 46.3675 42.9846 46.4518L25.5283 50.1355Z" fill="#FAD062"/>
<path d="M25.4811 39.6614C23.0076 39.1705 20.7024 41.0631 20.7024 43.5849V44.7427H42.8621C43.3083 44.7427 43.67 44.381 43.67 43.9348C43.67 43.5492 43.3976 43.2174 43.0194 43.1423L25.4811 39.6614Z" fill="#FAD062"/>
<circle cx="44" cy="45" r="5" transform="rotate(90 44 45)" fill="#FAD062"/>
<rect x="14" y="91" width="4" height="10" rx="1" fill="#FAD062"/>
<rect x="48" y="94" width="4" height="10" rx="1" transform="rotate(90 48 94)" fill="#FAD062"/>
<rect x="65" y="93.3464" width="4" height="10" rx="1" transform="rotate(-35.9156 65 93.3464)" fill="#FAD062"/>
<rect x="9" y="10" width="68" height="68" rx="5" fill="white" fill-opacity="0.34"/>
<circle cx="15" cy="16" r="4" fill="#E9644D"/>
<circle cx="71" cy="16" r="4" fill="#E9644D"/>
<circle cx="15" cy="71" r="4" fill="#E9644D"/>
<circle cx="71" cy="71" r="4" fill="#E9644D"/>
</svg>
