<svg width="211" height="127" viewBox="0 0 211 127" fill="none" xmlns="http://www.w3.org/2000/svg">
<rect width="211" height="28" rx="10" fill="#E9644D"/>
<rect x="24" y="28" width="17" height="22" fill="#925948" fill-opacity="0.83"/>
<path d="M29.0533 34.8529C30.6003 32.2259 34.3997 32.2259 35.9467 34.8529L51.0327 60.4702C52.603 63.1367 50.6805 66.5 47.586 66.5H17.414C14.3195 66.5 12.397 63.1367 13.9673 60.4702L29.0533 34.8529Z" fill="#925948"/>
<rect x="170" y="28" width="17" height="23" fill="#925948" fill-opacity="0.83"/>
<path d="M175.053 35.8529C176.6 33.2259 180.4 33.2259 181.947 35.8529L197.033 61.4702C198.603 64.1367 196.681 67.5 193.586 67.5H163.414C160.319 67.5 158.397 64.1367 159.967 61.4702L175.053 35.8529Z" fill="#925948"/>
<path d="M102.053 59.8529C103.6 57.2259 107.4 57.2259 108.947 59.8529L124.033 85.4702C125.603 88.1367 123.681 91.5 120.586 91.5H90.414C87.3195 91.5 85.397 88.1367 86.9673 85.4702L102.053 59.8529Z" fill="#925948"/>
<rect x="97" y="28" width="17" height="46" fill="#925948" fill-opacity="0.83"/>
<rect x="12" y="8" width="187" height="11" rx="5" fill="white"/>
<rect x="18" y="9" width="40" height="9" rx="4.5" fill="#F58442"/>
<rect x="109" y="9" width="81" height="9" rx="4.5" fill="#F58442"/>
<rect width="211" height="127" rx="10" fill="white" fill-opacity="0.58"/>
</svg>
