<svg width="175" height="174" viewBox="0 0 175 174" fill="none" xmlns="http://www.w3.org/2000/svg">
<path d="M61.5 0L82.7176 36.75H40.2824L61.5 0Z" fill="#283F73"/>
<rect x="77.3628" y="4.8313" width="27" height="28" transform="rotate(15.9363 77.3628 4.8313)" fill="#2B885C"/>
<ellipse cx="109" cy="20" rx="16" ry="15" fill="#283F73"/>
<path d="M91.0173 96.5188C89.0689 98.4472 85.9311 98.4472 83.9827 96.5188L20.3651 33.5537C17.1903 30.4114 19.4154 25 23.8824 25H151.118C155.585 25 157.81 30.4114 154.635 33.5537L91.0173 96.5188Z" fill="#F5A1C3"/>
<rect x="35" y="142" width="105" height="32" rx="5" fill="#F5A1C3"/>
<rect x="9" y="59" width="156" height="95" rx="10" fill="#E9644D"/>
<rect x="32" y="84" width="110" height="45" rx="5" fill="#F5A1C3"/>
<path d="M67.1182 110.199C67.1182 111.368 66.8149 112.418 66.2085 113.35C65.6108 114.282 64.7319 115.011 63.5718 115.539C62.4116 116.066 61.0361 116.33 59.4453 116.33C57.5381 116.33 55.9648 115.969 54.7256 115.249C53.8467 114.73 53.1304 114.04 52.5767 113.179C52.0317 112.309 51.7593 111.465 51.7593 110.647C51.7593 110.173 51.9219 109.769 52.2471 109.435C52.5811 109.092 53.0029 108.92 53.5127 108.92C53.9258 108.92 54.2729 109.052 54.5542 109.316C54.8442 109.58 55.0903 109.971 55.2925 110.489C55.5386 111.104 55.8022 111.619 56.0835 112.032C56.3735 112.445 56.7778 112.788 57.2964 113.06C57.8149 113.324 58.4961 113.456 59.3398 113.456C60.5 113.456 61.4404 113.188 62.1611 112.651C62.8906 112.106 63.2554 111.43 63.2554 110.621C63.2554 109.979 63.0576 109.461 62.6621 109.065C62.2754 108.661 61.77 108.354 61.146 108.143C60.5308 107.932 59.7046 107.708 58.6675 107.47C57.2788 107.145 56.1143 106.767 55.1738 106.336C54.2422 105.897 53.4995 105.304 52.9458 104.557C52.4009 103.801 52.1284 102.865 52.1284 101.749C52.1284 100.685 52.4185 99.7402 52.9985 98.9141C53.5786 98.0879 54.418 97.4551 55.5166 97.0156C56.6152 96.5674 57.9072 96.3433 59.3926 96.3433C60.5791 96.3433 61.603 96.4927 62.4644 96.7915C63.3345 97.0815 64.0552 97.4727 64.6265 97.9648C65.1978 98.4482 65.6152 98.958 65.8789 99.4941C66.1426 100.03 66.2744 100.553 66.2744 101.063C66.2744 101.529 66.1074 101.951 65.7734 102.329C65.4482 102.698 65.0396 102.882 64.5474 102.882C64.0991 102.882 63.7563 102.772 63.519 102.553C63.2905 102.324 63.04 101.955 62.7676 101.445C62.416 100.716 61.9941 100.149 61.502 99.7446C61.0098 99.3315 60.2188 99.125 59.1289 99.125C58.1182 99.125 57.3008 99.3491 56.6768 99.7974C56.0615 100.237 55.7539 100.769 55.7539 101.393C55.7539 101.779 55.8594 102.113 56.0703 102.395C56.2812 102.676 56.5713 102.917 56.9404 103.12C57.3096 103.322 57.6831 103.48 58.061 103.594C58.439 103.708 59.063 103.875 59.9331 104.095C61.0229 104.35 62.0073 104.631 62.8862 104.939C63.7739 105.247 64.5254 105.62 65.1406 106.06C65.7646 106.499 66.248 107.057 66.5908 107.734C66.9424 108.402 67.1182 109.224 67.1182 110.199ZM78.9438 96.3433C80.9478 96.3433 82.666 96.752 84.0986 97.5693C85.54 98.3779 86.6299 99.5337 87.3682 101.037C88.1064 102.531 88.4756 104.289 88.4756 106.31C88.4756 107.804 88.2734 109.162 87.8691 110.384C87.4648 111.605 86.8584 112.665 86.0498 113.561C85.2412 114.458 84.248 115.143 83.0703 115.618C81.8926 116.092 80.5435 116.33 79.0229 116.33C77.5112 116.33 76.1577 116.088 74.9624 115.604C73.7671 115.112 72.7695 114.422 71.9697 113.535C71.1699 112.647 70.5635 111.579 70.1504 110.331C69.7461 109.083 69.5439 107.734 69.5439 106.284C69.5439 104.798 69.7549 103.436 70.1768 102.197C70.6074 100.958 71.2271 99.9028 72.0356 99.0327C72.8442 98.1626 73.8286 97.499 74.9888 97.042C76.1489 96.5762 77.4673 96.3433 78.9438 96.3433ZM84.5073 106.284C84.5073 104.869 84.2788 103.643 83.8218 102.605C83.3647 101.568 82.71 100.786 81.8574 100.259C81.0137 99.7227 80.0425 99.4546 78.9438 99.4546C78.1616 99.4546 77.4365 99.604 76.7686 99.9028C76.1094 100.193 75.5381 100.619 75.0547 101.182C74.5801 101.744 74.2021 102.465 73.9209 103.344C73.6484 104.214 73.5122 105.194 73.5122 106.284C73.5122 107.382 73.6484 108.375 73.9209 109.263C74.2021 110.151 74.5933 110.889 75.0942 111.478C75.604 112.058 76.1841 112.493 76.8345 112.783C77.4937 113.073 78.2144 113.218 78.9966 113.218C79.9985 113.218 80.917 112.968 81.752 112.467C82.5957 111.966 83.2637 111.192 83.7559 110.146C84.2568 109.101 84.5073 107.813 84.5073 106.284ZM97.0845 107.734H95.7134V113.943C95.7134 114.761 95.5332 115.363 95.1729 115.75C94.8125 116.136 94.3423 116.33 93.7622 116.33C93.1382 116.33 92.6548 116.127 92.312 115.723C91.9692 115.319 91.7979 114.726 91.7979 113.943V99.0723C91.7979 98.2285 91.9868 97.6177 92.3647 97.2397C92.7427 96.8618 93.3535 96.6729 94.1973 96.6729H100.565C101.444 96.6729 102.195 96.7124 102.819 96.7915C103.443 96.8618 104.006 97.0112 104.507 97.2397C105.113 97.4946 105.649 97.8594 106.115 98.334C106.581 98.8086 106.933 99.3623 107.17 99.9951C107.416 100.619 107.539 101.283 107.539 101.986C107.539 103.427 107.13 104.579 106.313 105.44C105.504 106.301 104.274 106.912 102.622 107.272C103.316 107.642 103.979 108.187 104.612 108.907C105.245 109.628 105.808 110.397 106.3 111.214C106.801 112.023 107.188 112.757 107.46 113.416C107.741 114.066 107.882 114.515 107.882 114.761C107.882 115.016 107.798 115.271 107.631 115.525C107.473 115.771 107.253 115.965 106.972 116.105C106.691 116.255 106.366 116.33 105.997 116.33C105.557 116.33 105.188 116.224 104.889 116.013C104.59 115.811 104.331 115.552 104.111 115.235C103.9 114.919 103.61 114.453 103.241 113.838L101.672 111.228C101.11 110.27 100.604 109.54 100.156 109.039C99.7168 108.538 99.2686 108.195 98.8115 108.011C98.3545 107.826 97.7788 107.734 97.0845 107.734ZM99.3257 99.6128H95.7134V104.926H99.2202C100.161 104.926 100.952 104.847 101.593 104.688C102.235 104.521 102.723 104.245 103.057 103.858C103.399 103.462 103.571 102.922 103.571 102.236C103.571 101.7 103.435 101.23 103.162 100.826C102.89 100.413 102.512 100.105 102.028 99.9028C101.571 99.7095 100.67 99.6128 99.3257 99.6128ZM122.463 99.9028H118.191V113.943C118.191 114.752 118.011 115.354 117.651 115.75C117.291 116.136 116.825 116.33 116.253 116.33C115.673 116.33 115.199 116.132 114.83 115.736C114.469 115.341 114.289 114.743 114.289 113.943V99.9028H110.018C109.35 99.9028 108.853 99.7578 108.528 99.4678C108.203 99.1689 108.04 98.7778 108.04 98.2944C108.04 97.7935 108.207 97.3979 108.541 97.1079C108.884 96.8179 109.376 96.6729 110.018 96.6729H122.463C123.14 96.6729 123.641 96.8223 123.966 97.1211C124.3 97.4199 124.467 97.811 124.467 98.2944C124.467 98.7778 124.3 99.1689 123.966 99.4678C123.632 99.7578 123.131 99.9028 122.463 99.9028Z" fill="#283F73"/>
</svg>
