<svg width="427" height="811" viewBox="0 0 427 811" fill="none" xmlns="http://www.w3.org/2000/svg">
<rect x="54" y="-10" width="308" height="59" fill="#FFE693"/>
<path d="M54 170.224H114" stroke="#925948" stroke-opacity="0.83" stroke-width="20"/>
<path d="M44 171.186C44 165.35 44 145.711 44 136.387C44 133.625 41.7614 131.392 39 131.392H27.3701M27.3701 131.392V109.634M27.3701 131.392H16C13.2386 131.392 11 133.62 11 136.382C11 144.994 11 162.301 11 168.301" stroke="#925948" stroke-opacity="0.83" stroke-width="20"/>
<path d="M427.004 377.488H359.996" stroke="#925948" stroke-opacity="0.83" stroke-width="20"/>
<path d="M11 168.3V576.082" stroke="#925948" stroke-opacity="0.83" stroke-width="20"/>
<path d="M11 576.082H10.1356" stroke="#925948" stroke-opacity="0.83" stroke-width="20" stroke-linecap="round"/>
<path d="M11 576.082V782.857" stroke="#925948" stroke-opacity="0.83" stroke-width="20" stroke-linecap="round"/>
<path d="M11 782.857H10" stroke="#925948" stroke-opacity="0.83" stroke-width="20" stroke-linecap="round"/>
<path d="M34 377.962C34 383.485 38.4772 387.962 44 387.962C49.5228 387.962 54 383.485 54 377.962H44H34ZM44 171.186H34L34 377.962H44H54L54 171.186H44Z" fill="#925948" fill-opacity="0.83"/>
<path d="M44 388.076C38.4771 388.076 34 383.599 34 378.076C34 372.553 38.4771 368.076 44 368.076V378.076V388.076ZM44 378.076V368.076H96V378.076V388.076H44V378.076Z" fill="#925948" fill-opacity="0.83"/>
<path d="M92 668.41H49C46.2386 668.41 44 670.648 44 673.41V770.355" stroke="#925948" stroke-opacity="0.83" stroke-width="20"/>
<path d="M371 635.71H363C360.239 635.71 358 637.949 358 640.71V692.453" stroke="#925948" stroke-opacity="0.83" stroke-width="20"/>
<path d="M124 786.322C129.523 786.322 134 790.799 134 796.322C134 801.845 129.523 806.322 124 806.322V796.322V786.322ZM44 770.355H54V791.322H44H34V770.355H44ZM49 796.322V786.322H124V796.322V806.322H49V796.322ZM44 791.322H54C54 788.561 51.7614 786.322 49 786.322V796.322V806.322C40.7157 806.322 34 799.606 34 791.322H44Z" fill="#925948" fill-opacity="0.83"/>
<path d="M169 774.202H323" stroke="#925948" stroke-opacity="0.83" stroke-width="20"/>
<path d="M134 796.322C134 801.845 129.523 806.322 124 806.322C118.477 806.322 114 801.845 114 796.322H124H134ZM169 774.202V784.202H129V774.202V764.202H169V774.202ZM124 779.202H134V796.322H124H114V779.202H124ZM129 774.202V784.202C131.761 784.202 134 781.963 134 779.202H124H114C114 770.918 120.716 764.202 129 764.202V774.202Z" fill="#925948" fill-opacity="0.83"/>
<path d="M388 581.852V630.71C388 633.472 385.761 635.71 383 635.71H371" stroke="#925948" stroke-opacity="0.83" stroke-width="20"/>
<rect x="65" y="717.459" width="181" height="29.8142" rx="14.9071" fill="#925948" fill-opacity="0.83" stroke="#925948" stroke-width="4"/>
<ellipse cx="99.6667" cy="732.366" rx="8.66667" ry="8.17486" fill="#925948" fill-opacity="0.83" stroke="#925948" stroke-width="2"/>
<ellipse cx="136.667" cy="732.366" rx="8.66667" ry="8.17486" fill="#925948" fill-opacity="0.83" stroke="#925948" stroke-width="2"/>
<ellipse cx="173.667" cy="732.366" rx="8.66667" ry="8.17486" fill="#925948" fill-opacity="0.83" stroke="#925948" stroke-width="2"/>
<ellipse cx="210.667" cy="732.366" rx="8.66667" ry="8.17486" fill="#925948" fill-opacity="0.83" stroke="#925948" stroke-width="2"/>
<rect x="205" y="551.076" width="220" height="29.8142" rx="14.9071" fill="#925948" fill-opacity="0.83" stroke="#925948" stroke-width="4"/>
<ellipse cx="228.085" cy="565.983" rx="8.11111" ry="8.17486" fill="#925948" fill-opacity="0.83" stroke="#925948" stroke-width="2"/>
<ellipse cx="262.714" cy="565.983" rx="8.11111" ry="8.17486" fill="#925948" fill-opacity="0.83" stroke="#925948" stroke-width="2"/>
<ellipse cx="297.342" cy="565.983" rx="8.11111" ry="8.17486" fill="#925948" fill-opacity="0.83" stroke="#925948" stroke-width="2"/>
<ellipse cx="331.97" cy="565.983" rx="8.11111" ry="8.17486" fill="#925948" fill-opacity="0.83" stroke="#925948" stroke-width="2"/>
<ellipse cx="366.598" cy="565.983" rx="8.11111" ry="8.17486" fill="#925948" fill-opacity="0.83" stroke="#925948" stroke-width="2"/>
<ellipse cx="401.227" cy="565.983" rx="8.11111" ry="8.17486" fill="#925948" fill-opacity="0.83" stroke="#925948" stroke-width="2"/>
<rect x="321" y="788.628" width="27.8907" height="11" rx="1" transform="rotate(-90 321 788.628)" fill="#925948"/>
<rect x="344" y="682.836" width="29" height="10.5792" rx="1" fill="#925948"/>
<rect x="372" y="98.0928" width="29" height="10.5792" rx="1" fill="#925948"/>
<rect x="375" y="186.574" width="24" height="10.5792" rx="1" fill="#925948"/>
<rect x="163" y="227.929" width="24" height="10.5792" rx="1" fill="#925948"/>
<rect x="13" y="102.902" width="29" height="10.5792" rx="1" fill="#925948"/>
<rect x="79" y="25" width="27.8907" height="11" rx="1" transform="rotate(90 79 25)" fill="#925948"/>
<rect x="166" y="760.737" width="27.8907" height="11" rx="1" transform="rotate(90 166 760.737)" fill="#925948"/>
<rect x="89" y="782.858" width="27.8907" height="11" rx="1" transform="rotate(90 89 782.858)" fill="#925948"/>
<rect x="374" y="581.852" width="29" height="10.5792" rx="1" fill="#925948"/>
<rect x="81" y="682.836" width="27.8907" height="11" rx="1" transform="rotate(-90 81 682.836)" fill="#925948"/>
<path d="M387 108.672V44.4264C387 41.6649 384.761 39.4264 382 39.4264H85" stroke="#925948" stroke-opacity="0.83" stroke-width="20"/>
<path d="M387 154.836V204.656C387 207.417 384.761 209.656 382 209.656H338" stroke="#925948" stroke-opacity="0.83" stroke-width="15"/>
<path d="M175 228.891V214.656C175 211.894 177.239 209.656 180 209.656H338" stroke="#925948" stroke-opacity="0.83" stroke-width="15"/>
<path d="M27 109.634V44.4263C27 41.6649 29.2386 39.4263 32 39.4263H85" stroke="#925948" stroke-opacity="0.83" stroke-width="20"/>
<rect x="68" y="362.574" width="332" height="29.8142" rx="14.9071" fill="#925948" fill-opacity="0.83" stroke="#925948" stroke-width="4"/>
<ellipse cx="94.1065" cy="377.481" rx="8.81524" ry="8.17486" fill="#925948" fill-opacity="0.83" stroke="#925948" stroke-width="2"/>
<ellipse cx="132.479" cy="377.481" rx="8.81524" ry="8.17486" fill="#925948" fill-opacity="0.83" stroke="#925948" stroke-width="2"/>
<ellipse cx="170.851" cy="377.481" rx="8.81524" ry="8.17486" fill="#925948" fill-opacity="0.83" stroke="#925948" stroke-width="2"/>
<ellipse cx="209.223" cy="377.481" rx="8.81524" ry="8.17486" fill="#925948" fill-opacity="0.83" stroke="#925948" stroke-width="2"/>
<ellipse cx="247.595" cy="377.481" rx="8.81524" ry="8.17486" fill="#925948" fill-opacity="0.83" stroke="#925948" stroke-width="2"/>
<ellipse cx="285.968" cy="377.481" rx="8.81524" ry="8.17486" fill="#925948" fill-opacity="0.83" stroke="#925948" stroke-width="2"/>
<ellipse cx="324.34" cy="377.481" rx="8.81524" ry="8.17486" fill="#925948" fill-opacity="0.83" stroke="#925948" stroke-width="2"/>
<ellipse cx="362.578" cy="377.481" rx="8.81524" ry="8.17486" fill="#925948" fill-opacity="0.83" stroke="#925948" stroke-width="2"/>
<rect x="88" y="154.836" width="312" height="29.8142" rx="14.9071" fill="#925948" fill-opacity="0.83" stroke="#925948" stroke-width="4"/>
<ellipse cx="114" cy="169.743" rx="8.66667" ry="8.17486" fill="#925948" fill-opacity="0.83" stroke="#925948" stroke-width="2"/>
<ellipse cx="151.725" cy="169.743" rx="8.66667" ry="8.17486" fill="#925948" fill-opacity="0.83" stroke="#925948" stroke-width="2"/>
<ellipse cx="189.451" cy="169.743" rx="8.66667" ry="8.17486" fill="#925948" fill-opacity="0.83" stroke="#925948" stroke-width="2"/>
<ellipse cx="227.176" cy="169.743" rx="8.66667" ry="8.17486" fill="#925948" fill-opacity="0.83" stroke="#925948" stroke-width="2"/>
<ellipse cx="264.902" cy="169.743" rx="8.66667" ry="8.17486" fill="#925948" fill-opacity="0.83" stroke="#925948" stroke-width="2"/>
<ellipse cx="302.627" cy="169.743" rx="8.66667" ry="8.17486" fill="#925948" fill-opacity="0.83" stroke="#925948" stroke-width="2"/>
<ellipse cx="340.353" cy="169.743" rx="8.66667" ry="8.17486" fill="#925948" fill-opacity="0.83" stroke="#925948" stroke-width="2"/>
<ellipse cx="377.947" cy="169.743" rx="8.66667" ry="8.17486" fill="#925948" fill-opacity="0.83" stroke="#925948" stroke-width="2"/>
</svg>
