<svg width="427" height="818" viewBox="0 0 427 818" fill="none" xmlns="http://www.w3.org/2000/svg">
<path d="M309 377.802V421.264C309 424.025 306.761 426.264 304 426.264H176" stroke="#925948" stroke-opacity="0.83" stroke-width="20"/>
<rect x="323" y="388.681" width="29" height="10.8791" rx="1" transform="rotate(180 323 388.681)" fill="#925948"/>
<rect x="176" y="440.11" width="28.6813" height="11" rx="1" transform="rotate(-90 176 440.11)" fill="#925948"/>
<path d="M399 0V62.2527C399 65.0142 396.761 67.2527 394 67.2527H340H276.5H189" stroke="#925948" stroke-opacity="0.83" stroke-width="20"/>
<path d="M308 77.1428V117.692" stroke="#925948" stroke-opacity="0.83" stroke-width="20"/>
<rect x="383" width="32" height="10.8791" rx="1" fill="#925948"/>
<rect x="200" y="52.4176" width="28.6813" height="11" rx="1" transform="rotate(90 200 52.4176)" fill="#925948"/>
<rect x="323" y="117.692" width="29" height="10.8791" rx="1" transform="rotate(180 323 117.692)" fill="#925948"/>
<path d="M153 169.121C153 162.957 153 148.257 153 140.494C153 137.732 150.761 135.494 148 135.494H98.5748M98.5748 135.494V103.846M98.5748 135.494H50C47.2386 135.494 45 137.731 45 140.493C45 148.178 45 162.683 45 169.121" stroke="#925948" stroke-opacity="0.83" stroke-width="20"/>
<rect x="113" y="114.725" width="29" height="10.8791" rx="1" transform="rotate(180 113 114.725)" fill="#925948"/>
<rect x="168" y="169.121" width="29" height="10.8791" rx="1" transform="rotate(180 168 169.121)" fill="#925948"/>
<rect x="60" y="169.121" width="29" height="10.8791" rx="1" transform="rotate(180 60 169.121)" fill="#925948"/>
<rect x="168" y="779.341" width="234" height="30.6593" rx="15.3297" fill="#925948" fill-opacity="0.83" stroke="#925948" stroke-width="4"/>
<ellipse cx="192.667" cy="794.67" rx="8.66667" ry="8.40659" fill="#925948" fill-opacity="0.83" stroke="#925948" stroke-width="2"/>
<ellipse cx="229.667" cy="794.67" rx="8.66667" ry="8.40659" fill="#925948" fill-opacity="0.83" stroke="#925948" stroke-width="2"/>
<ellipse cx="266.667" cy="794.67" rx="8.66667" ry="8.40659" fill="#925948" fill-opacity="0.83" stroke="#925948" stroke-width="2"/>
<ellipse cx="303.667" cy="794.67" rx="8.66667" ry="8.40659" fill="#925948" fill-opacity="0.83" stroke="#925948" stroke-width="2"/>
<ellipse cx="340.667" cy="794.67" rx="8.66667" ry="8.40659" fill="#925948" fill-opacity="0.83" stroke="#925948" stroke-width="2"/>
<ellipse cx="377.667" cy="794.67" rx="8.66667" ry="8.40659" fill="#925948" fill-opacity="0.83" stroke="#925948" stroke-width="2"/>
<rect x="184" y="701.209" width="23.7363" height="11" rx="1" transform="rotate(-90 184 701.209)" fill="#925948"/>
<rect x="63" y="802.088" width="23.7363" height="11" rx="1" transform="rotate(-90 63 802.088)" fill="#925948"/>
<path d="M175 602.308V639.835C175 642.597 172.761 644.835 170 644.835H133" stroke="#925948" stroke-opacity="0.83" stroke-width="20"/>
<path d="M9 775.385V802.033C9 804.794 6.76142 807.033 4 807.033H0" stroke="#925948" stroke-opacity="0.83" stroke-width="20"/>
<path d="M195 716.044H124C121.239 716.044 119 718.283 119 721.044V736.813" stroke="#925948" stroke-opacity="0.83" stroke-width="15"/>
<path d="M53 664.615V785.22C53 787.981 55.2386 790.22 58 790.22H74" stroke="#925948" stroke-opacity="0.83" stroke-width="15"/>
<rect x="41" y="664.615" width="24" height="10.8791" rx="1" fill="#925948"/>
<rect x="107" y="725.934" width="24" height="10.8791" rx="1" fill="#925948"/>
<path d="M151 654.725V685.33C151 688.091 153.239 690.33 156 690.33H195" stroke="#925948" stroke-opacity="0.83" stroke-width="15"/>
<path d="M9 775.385V650.824C9 648.063 11.2386 645.824 14 645.824H28" stroke="#925948" stroke-opacity="0.83" stroke-width="20"/>
<rect x="160" y="602.308" width="29" height="10.8791" rx="1" fill="#925948"/>
<path d="M0 569.67H273V600.33H0V569.67Z" fill="#925948" fill-opacity="0.83" stroke="#925948" stroke-width="4"/>
<ellipse cx="38.4913" cy="585" rx="8.33972" ry="8.40659" fill="#925948" stroke="#925948" stroke-width="2"/>
<ellipse cx="74.7931" cy="585" rx="8.33972" ry="8.40659" fill="#925948" stroke="#925948" stroke-width="2"/>
<ellipse cx="111.096" cy="585" rx="8.33972" ry="8.40659" fill="#925948" stroke="#925948" stroke-width="2"/>
<ellipse cx="147.398" cy="585" rx="8.33972" ry="8.40659" fill="#925948" stroke="#925948" stroke-width="2"/>
<ellipse cx="183.7" cy="585" rx="8.33972" ry="8.40659" fill="#925948" stroke="#925948" stroke-width="2"/>
<ellipse cx="220.003" cy="585" rx="8.33972" ry="8.40659" fill="#925948" stroke="#925948" stroke-width="2"/>
<ellipse cx="256.305" cy="585" rx="8.33972" ry="8.40659" fill="#925948" stroke="#925948" stroke-width="2"/>
<rect x="378" y="596.374" width="28.6813" height="11" rx="1" transform="rotate(-90 378 596.374)" fill="#925948"/>
<rect x="378.5" y="595.874" width="27.6813" height="10" rx="0.5" transform="rotate(-90 378.5 595.874)" stroke="#925948" stroke-opacity="0.83"/>
<rect x="389" y="572.637" width="38" height="19.7802" fill="#925948" fill-opacity="0.83"/>
<rect x="377" y="785.275" width="50" height="19.7802" fill="#925948" fill-opacity="0.83"/>
</svg>
