<svg width="428" height="828" viewBox="0 0 428 828" fill="none" xmlns="http://www.w3.org/2000/svg">
<rect x="376.5" y="185.551" width="32" height="17.4525" fill="#925948" fill-opacity="0.83"/>
<path d="M417.5 10V461.711" stroke="#925948" stroke-opacity="0.83" stroke-width="20" stroke-linecap="round"/>
<path d="M417.5 461.711H258.5" stroke="#925948" stroke-opacity="0.83" stroke-width="20" stroke-linecap="round"/>
<rect x="351.5" y="560.266" width="29" height="11.2928" rx="1" fill="#925948"/>
<rect x="351.5" y="751.217" width="29" height="11.2928" rx="1" fill="#925948"/>
<rect x="34.5" y="722.471" width="26.692" height="11" rx="1" transform="rotate(90 34.5 722.471)" fill="#925948"/>
<rect x="34.5" y="599.277" width="26.692" height="11" rx="1" transform="rotate(90 34.5 599.277)" fill="#925948"/>
<rect x="258.5" y="405.247" width="23.6122" height="11" rx="1" transform="rotate(90 258.5 405.247)" fill="#925948"/>
<rect x="296.5" y="295.399" width="23.6122" height="11" rx="1" transform="rotate(90 296.5 295.399)" fill="#925948"/>
<rect x="404.5" y="294.372" width="23.6122" height="11" rx="1" transform="rotate(90 404.5 294.372)" fill="#925948"/>
<rect x="61.5" y="42.8516" width="29" height="11.2928" rx="1" fill="#925948"/>
<rect x="391.5" y="35.6652" width="29.7719" height="11" rx="1" transform="rotate(90 391.5 35.6652)" fill="#925948"/>
<path d="M271.5 342.623V310.665C271.5 307.904 273.739 305.665 276.5 305.665H407.5" stroke="#925948" stroke-opacity="0.83" stroke-width="15"/>
<path d="M67.5 461.711H15.5C12.7386 461.711 10.5 459.472 10.5 456.711V322.091" stroke="#925948" stroke-opacity="0.83" stroke-width="20"/>
<path d="M34.5 611.597H12.5C9.73858 611.597 7.5 609.358 7.5 606.597V544.867" stroke="#925948" stroke-opacity="0.83" stroke-width="15"/>
<path d="M323.5 501.749H360.5C363.261 501.749 365.5 503.988 365.5 506.749V571.046" stroke="#925948" stroke-opacity="0.83" stroke-width="15"/>
<path d="M7.49999 544.867V506.749C7.49999 503.988 9.73857 501.749 12.5 501.749H323.5" stroke="#925948" stroke-opacity="0.83" stroke-width="15"/>
<path d="M32 735.817H12.5C9.73858 735.817 7.5 738.056 7.5 740.817V800.494" stroke="#925948" stroke-opacity="0.83" stroke-width="15"/>
<path d="M337.5 820H361.5C364.261 820 366.5 817.761 366.5 815V751.217" stroke="#925948" stroke-opacity="0.83" stroke-width="15"/>
<path d="M7.50001 800.494V815C7.50001 817.761 9.73858 820 12.5 820H337.5" stroke="#925948" stroke-opacity="0.83" stroke-width="15"/>
<path d="M75.5 46.958V26.2926C75.5 23.5312 73.2614 21.2926 70.5 21.2926H43.5" stroke="#925948" stroke-opacity="0.83" stroke-width="20"/>
<path d="M10.5 322.091V26.2927C10.5 23.5313 12.7386 21.2927 15.5 21.2927H43.5" stroke="#925948" stroke-opacity="0.83" stroke-width="20"/>
<rect x="42.5" y="176.312" width="356" height="31.8251" rx="15.9125" fill="#925948" fill-opacity="0.83" stroke="#925948" stroke-width="4"/>
<ellipse cx="68.6065" cy="192.224" rx="8.81524" ry="8.72624" fill="#925948" fill-opacity="0.83" stroke="#925948" stroke-width="2"/>
<ellipse cx="106.979" cy="192.224" rx="8.81524" ry="8.72624" fill="#925948" fill-opacity="0.83" stroke="#925948" stroke-width="2"/>
<ellipse cx="145.351" cy="192.224" rx="8.81524" ry="8.72624" fill="#925948" fill-opacity="0.83" stroke="#925948" stroke-width="2"/>
<ellipse cx="183.723" cy="192.224" rx="8.81524" ry="8.72624" fill="#925948" fill-opacity="0.83" stroke="#925948" stroke-width="2"/>
<ellipse cx="222.095" cy="192.224" rx="8.81524" ry="8.72624" fill="#925948" fill-opacity="0.83" stroke="#925948" stroke-width="2"/>
<ellipse cx="260.468" cy="192.224" rx="8.81524" ry="8.72624" fill="#925948" fill-opacity="0.83" stroke="#925948" stroke-width="2"/>
<ellipse cx="298.84" cy="192.224" rx="8.81524" ry="8.72624" fill="#925948" fill-opacity="0.83" stroke="#925948" stroke-width="2"/>
<ellipse cx="337.078" cy="192.224" rx="8.81524" ry="8.72624" fill="#925948" fill-opacity="0.83" stroke="#925948" stroke-width="2"/>
<ellipse cx="375.445" cy="192.224" rx="8.81524" ry="8.72624" fill="#925948" fill-opacity="0.83" stroke="#925948" stroke-width="2"/>
<rect x="41.5" y="445.285" width="241" height="31.8251" rx="15.9125" fill="#925948" fill-opacity="0.83" stroke="#925948" stroke-width="4"/>
<ellipse cx="64.0953" cy="461.198" rx="8.81524" ry="8.72624" fill="#925948" fill-opacity="0.83" stroke="#925948" stroke-width="2"/>
<ellipse cx="102.468" cy="461.198" rx="8.81524" ry="8.72624" fill="#925948" fill-opacity="0.83" stroke="#925948" stroke-width="2"/>
<ellipse cx="140.84" cy="461.198" rx="8.81524" ry="8.72624" fill="#925948" fill-opacity="0.83" stroke="#925948" stroke-width="2"/>
<ellipse cx="179.078" cy="461.198" rx="8.81524" ry="8.72624" fill="#925948" fill-opacity="0.83" stroke="#925948" stroke-width="2"/>
<ellipse cx="217.445" cy="461.198" rx="8.81524" ry="8.72624" fill="#925948" fill-opacity="0.83" stroke="#925948" stroke-width="2"/>
<ellipse cx="256.315" cy="461.198" rx="8.81524" ry="8.72624" fill="#925948" fill-opacity="0.83" stroke="#925948" stroke-width="2"/>
<rect x="391.5" y="41.825" width="16" height="17.4525" fill="#924E48" fill-opacity="0.83"/>
<path d="M247.5 417.566H266.5C269.261 417.566 271.5 415.328 271.5 412.566V342.623" stroke="#925948" stroke-opacity="0.83" stroke-width="15"/>
<rect x="102.5" y="727.604" width="20" height="15.3992" fill="#925948" fill-opacity="0.83"/>
</svg>
